<svg id="Layer_1" data-name="Layer 1" xmlns="http://www.w3.org/2000/svg" viewBox="0 0 272.42 291.57"><defs><style>.cls-1{fill:#1c1b1a;}</style></defs><path class="cls-1" d="M149.91,99.83c0,22.15,0,44.33-1.95,66.41-1,10.68-2.12,21.36-3.32,32-.58,5.14-1.74,10.47-1.49,15.65a47.35,47.35,0,0,0,3.36,14.49c3.37,8.95,17.87,5.07,14.47-4-1.47-3.91-2.92-7.89-2.86-12.12.07-5.3,1.16-10.69,1.74-16,1.17-10.67,2.37-21.35,3.27-32.05,1.82-21.43,1.78-43,1.78-64.45,0-9.65-15-9.67-15,0Z"/><path class="cls-1" d="M94.93,99a167.1,167.1,0,0,0,41.84,12.76c14.5,2.54,29.75,4.63,44.49,4.77,9.66.09,9.66-14.91,0-15-13.42-.13-27.29-1.92-40.51-4.23S114.58,91.62,102.5,86c-8.7-4-16.33,8.88-7.57,13Z"/><path class="cls-1" d="M117.06,250.41a235,235,0,0,0,33.64-4.94,101.55,101.55,0,0,1,14.83-2.16c4.55-.37,9.42-2.28,13.9-2.07,9.65.46,9.62-14.54,0-15-4.54-.22-8.61,1.59-13,2-5.47.51-11,1.14-16.38,2.08-4.9.86-9.62,2.59-14.57,3.2-6.11.75-12.25,1.37-18.38,1.89-9.55.82-9.64,15.83,0,15Z"/></svg>