<svg id="Layer_1" data-name="Layer 1" xmlns="http://www.w3.org/2000/svg" viewBox="0 0 272.42 291.57"><defs><style>.cls-1{fill:#1c1b1a;}</style></defs><path class="cls-1" d="M80.17,147.71c0,11.51,0,23,0,34.54,0,5.24.53,10.58,0,15.8-.2,2.14-.76,4.21-1.09,6.33-.36,2.34.25,5.23-.31,7.45l11-4.48c1.21.54.49,2.6.88.69a13.67,13.67,0,0,0-.1-2.23c0-1.92.16-3.82.28-5.73.37-5.64.15-11.3.57-17,.44-6,1-13.16,3.88-18.63a27.77,27.77,0,0,1,3.22-4.68c.29-.35,2.77-2.36,2.75-2.81.05,1-.08-1.47-.15,0,0-.08-.68-.19-.7-.12a3.16,3.16,0,0,1,.43.45,19.56,19.56,0,0,1,1.67,3.09,49,49,0,0,1,2.76,10.46c.29,1.56.53,3.13.75,4.71-.2-1.47,0-.14.06.62.15,1.55.3,3.11.38,4.67.39,7.57-.17,15.16-.21,22.73h15c-.08-12.35-1.21-24.57,4.43-36,1.57-3.18,3.88-7,7.67-7.77,3.23-.68,2.87,3.17,3.25,6.07.74,5.68,3.88,11.73,6.17,17s5.18,10.77,9.55,14.77c8,7.29,18.51,8.37,28.84,8.41,9.65,0,9.67-15,0-15-4.86,0-10.2.13-14.77-1.85-5.39-2.34-8.17-8-10.34-13.15-1.27-3-2.31-6.1-3.57-9.11-1.4-3.32-1.15-6.79-2.26-10.21-1.77-5.41-5.85-10-11.44-11.5-11.66-3.16-22.15,6.27-26.67,16.09-6.34,13.77-6,27.46-5.86,42.28.06,9.65,14.94,9.67,15,0,.08-14.28.93-28.45-2.76-42.4-2.62-9.88-9.45-22.4-21.77-18.52-6.21,2-11.36,8.68-14.38,14.19-4.14,7.56-5.17,16.78-5.86,25.25-.59,7.11-.57,14.29-.87,21.42-.24,5.88.41,13.91,6.6,16.7,4.26,1.91,9.73.62,11-4.48a26.75,26.75,0,0,0,.45-7.07c0-2.32.7-4.59,1-6.88.88-5.88.46-11.79.4-17.71-.13-12.15,0-24.31,0-36.45,0-9.65-15-9.67-15,0Z"/></svg>