<svg id="Layer_1" data-name="Layer 1" xmlns="http://www.w3.org/2000/svg" viewBox="0 0 272.42 291.57"><defs><style>.cls-1{fill:#1c1b1a;}</style></defs><path class="cls-1" d="M103.59,139.25c5.75,5.75,12.19,10.66,18.31,16,3,2.62,5.77,5.53,8.81,8.12s6.06,4.66,8.65,7.56c6.45,7.21,17-3.43,10.61-10.61-2.59-2.9-5.71-5.06-8.66-7.56s-5.78-5.5-8.8-8.12c-6.13-5.31-12.57-10.22-18.31-16-6.83-6.84-17.44,3.76-10.61,10.6Z"/><path class="cls-1" d="M154.5,128.65c-5.78,7.23-9.92,15.48-14.64,23.41s-9.07,16.1-13.19,24.37c-2.2,4.41-4.11,9-6.5,13.32-2,3.53-4.65,6.55-6.73,10s-3,7.45-4.82,11.08C107,214.2,103.71,216,103,220c-1.59,9.44,12.86,13.5,14.46,4-.63.5-.44.31.58-.58a17.45,17.45,0,0,0,2-2.39,27.11,27.11,0,0,0,2.51-5c1.49-3.54,2.64-7,4.81-10.2A188.1,188.1,0,0,0,139.62,184c3.84-7.71,7.88-15.33,12.24-22.76,4.25-7.24,8-15.42,13.24-22,2.55-3.19,3.06-7.48,0-10.6-2.59-2.65-8.08-3.16-10.6,0Z"/></svg>