<svg id="Layer_1" data-name="Layer 1" xmlns="http://www.w3.org/2000/svg" viewBox="0 0 272.42 291.57"><defs><style>.cls-1{fill:#1c1b1a;}</style></defs><path class="cls-1" d="M108,83.32c-1.29,11.29-3.42,22.31-4.14,33.69-.76,12-1.11,24.08-1.55,36.12-.88,23.83-3.28,47.58-3.48,71.44-.08,9.65,14.92,9.66,15,0,.2-23.86,2.6-47.61,3.48-71.44.43-11.72.77-23.44,1.49-35.14s2.87-23,4.2-34.67c.46-4-3.78-7.5-7.5-7.5-4.44,0-7,3.46-7.5,7.5Z"/><path class="cls-1" d="M122.67,95.3c10.11,5,20.53,9.75,29.82,16.24,4.21,2.94,4.82,6,6.56,10.64,1.38,3.64,3.8,7.24,1.45,10.94-3.56,5.61-12,8.1-18,9.74-4.43,1.21-8.91,2.12-13.32,3.4-2.85.84-5.7,1.72-8.59,2.43-.71.17-3.67.69-3.48.87-7-6.7-17.58,3.89-10.61,10.61,5.18,5,11.53,4.57,18.08,3,6.79-1.65,13.49-3.7,20.28-5.4,10.27-2.57,21.77-7.08,28-16.14a21.17,21.17,0,0,0,2.9-17.81c-.87-3-2.36-6-3.36-9a34,34,0,0,0-3.69-8.39c-4.09-6.07-11.49-10-17.72-13.51-6.76-3.81-13.78-7.14-20.72-10.59-8.61-4.29-16.22,8.64-7.57,13Z"/></svg>