<svg id="Layer_1" data-name="Layer 1" xmlns="http://www.w3.org/2000/svg" viewBox="0 0 272.42 291.57"><defs><style>.cls-1{fill:#1c1b1a;}</style></defs><path class="cls-1" d="M136.27,120.39c-3-3-6-5.92-9.9-7.67-5.18-2.28-11-3.15-16.59-3.82-9.5-1.14-20.86-2-30,1.41-9.45,3.54-17,11.92-23.74,19.11a88.8,88.8,0,0,0-16.6,24.8c-4,9.18-7.66,20.51-6.66,30.67a55.92,55.92,0,0,0,10.37,26.74c11.58,15.31,34.06,21.21,52.34,20.53,11.35-.42,24.28-.38,34.56-5.81a62.51,62.51,0,0,0,12.4-8.62,24,24,0,0,0,4.75-5.65c1.09-1.88,1.4-5.17,2.8-6.79,6.29-7.27-4.27-17.92-10.6-10.61-2.54,2.93-3.2,5.87-4.86,9.22-1.44,2.9-4.6,4.81-7.23,6.53-6.83,4.47-13.09,5.43-21.11,6-8.7.66-17.81,1.68-26.4-.35a58,58,0,0,1-19.57-8.49c-5.72-4.05-8.65-10.41-10.83-16.89-2.67-7.93-1.39-15.14.94-23C55,152.18,65.9,139.34,78,128.93c7.58-6.53,15.82-6,25.33-5.5a67,67,0,0,1,12.69,1.7c4.42,1.05,6.5,2.67,9.67,5.87,6.79,6.87,17.4-3.73,10.6-10.61Z"/></svg>