<svg id="Layer_1" data-name="Layer 1" xmlns="http://www.w3.org/2000/svg" viewBox="0 0 272.42 291.57"><defs><style>.cls-1{fill:#1c1b1a;}</style></defs><path class="cls-1" d="M127.83,132.57c.27,16.83,1.8,33.59,3.42,50.33,1.6,16.59,4.1,33.59,2,50.25a52.28,52.28,0,0,1-2,9.16c-.88,2.72-2.47,4.83-3.67,7.33-.46.94-2,.89-.19.94a5,5,0,0,1-2.23-1.09,30.44,30.44,0,0,1-5.36-5.16c-3.76-4.06-7.21-7.45-8.67-13-1.69-6.4-1.87-13.11-3-19.62-1.63-9.49-16.09-5.47-14.47,4,1.31,7.68,1.35,15.66,4.07,23,2.6,7.05,7.62,12.2,12.72,17.52,4.92,5.15,11.36,10.3,19,8.92,7.79-1.42,12.29-8.68,15-15.5,6.9-17.2,4.57-37.26,2.88-55.22-1.93-20.61-4.19-41.21-4.53-61.93-.16-9.64-15.16-9.67-15,0Z"/><path class="cls-1" d="M134,98.8c9.65,0,9.67-15,0-15s-9.66,15,0,15Z"/></svg>