<svg id="Layer_1" data-name="Layer 1" xmlns="http://www.w3.org/2000/svg" viewBox="0 0 272.42 291.57"><defs><style>.cls-1{fill:#1c1b1a;}</style></defs><path class="cls-1" d="M87.44,219.87c8.65,1,15.73-4.24,22.51-8.82,7.29-4.92,15.21-9.21,21.56-15.4,12.8-12.49,20-31.63,25.92-48.09,3.19-8.83,5.64-17.8,8-26.87,1.67-6.46,2.45-18.19-7.26-18.46-7.18-.2-13.5,4.9-18.3,9.62-6.35,6.22-13.06,12-19.19,18.48-22.89,24-47.34,57.77-41.39,92.85,2.9,17.09,13.59,32.06,25.73,43.95,6.31,6.18,12.45,11.73,21.69,12.3,7.7.47,15.65-2.63,21.84-7.05,7.29-5.22,12.42-12,12.24-21.37-.17-8.49-4-16.66-8.16-23.87-7.12-12.29-16.28-29.48-31.25-33l-2,14.73c13.45-.79,27.18-3.69,40.38-6.35,5.91-1.2,11.36-3.4,15.88-7.49,4.22-3.8,7-8.89,10.65-13.15,6.31-7.26-4.26-17.91-10.6-10.6-3.24,3.73-5.75,8.1-9.16,11.68s-7.51,4.5-12.19,5.37c-11.51,2.12-23.28,4.85-35,5.54-8.07.48-10.63,12.72-2,14.74,6.81,1.59,11.32,8.84,14.91,14.32,4,6.08,8.31,12.3,11.13,19,3,7.09,3.7,13.09-3.05,17.87s-14.12,6.59-20.53.68c-14-12.91-26.83-29-26.55-49,.25-19,11-36.63,22-51.45a203.09,203.09,0,0,1,22.49-25.65c3.84-3.69,7.87-7.17,11.65-10.93a39.55,39.55,0,0,1,5.26-4.77,10,10,0,0,1,2.5-1.21c.7-.23,3.14-.21,1-.31l-3.78-1-2.69-3.11a1.44,1.44,0,0,1-.05,1,11.29,11.29,0,0,0-.68,2.63c-.67,2.58-1.28,5.17-2,7.74q-2.13,7.92-4.81,15.69A208.17,208.17,0,0,1,131,170.58a56.38,56.38,0,0,1-19.45,21.58c-4.06,2.68-8.18,5.26-12.18,8-3.72,2.56-7.27,5.23-12,4.7-4-.46-7.5,3.77-7.5,7.5,0,4.43,3.45,7,7.5,7.5Z"/></svg>