<svg id="Layer_1" data-name="Layer 1" xmlns="http://www.w3.org/2000/svg" viewBox="0 0 272.42 291.57"><defs><style>.cls-1{fill:#1c1b1a;}</style></defs><path class="cls-1" d="M87.25,74.35c-6.72,7.67-4,19.13-4,28.53q0,18.59,0,37.18c0,11.64-2.09,23.05-2.18,34.75-.09,12.92.33,25.83.35,38.75,0,9.65,15,9.67,15,0,0-11.63-.36-23.25-.36-34.88,0-5.78-.06-11.63.35-17.4.36-5.22,1.74-10.29,1.85-15.54.23-11.1,0-22.23,0-33.33,0-5.71.07-11.42,0-17.12,0-2.16-1.24-9.35-.37-10.34,6.34-7.23-4.23-17.88-10.61-10.6Z"/><path class="cls-1" d="M98.06,85.32c6.62-.4,12.47,3.05,18.86,4.23,3.89.71,11.16,0,14.36,2.74,7.31,6.23,18-4.33,10.6-10.6-6-5.09-12.69-5.42-20.11-6.48-8.14-1.17-15.26-5.4-23.71-4.89-9.6.57-9.66,15.57,0,15Z"/><path class="cls-1" d="M99.89,169.7c17.81-.24,35.37-3.9,53.2-3.67,9.65.13,9.66-14.87,0-15-17.83-.23-35.39,3.43-53.2,3.67-9.64.13-9.67,15.13,0,15Z"/><path class="cls-1" d="M94.39,228.4h53.2c9.65,0,9.66-15,0-15H94.39c-9.65,0-9.67,15,0,15Z"/></svg>