<svg id="Layer_1" data-name="Layer 1" xmlns="http://www.w3.org/2000/svg" viewBox="0 0 272.42 291.57"><defs><style>.cls-1{fill:#1c1b1a;}</style></defs><path class="cls-1" d="M124,89c-7.42-7.19-17.73-9.5-27.77-9.93-10.42-.46-20.52.9-27.62,9.33-15.1,17.92-4.22,44.25,8.26,60.57,6.39,8.34,15.49,14.08,25,18.2a99.31,99.31,0,0,0,14.45,5.05A76.48,76.48,0,0,0,126,174c2.49.32,7.11-.12,9.13,1.39-.57-.42-.52-1.15.12.47a16.3,16.3,0,0,1,.66,2.49,43.4,43.4,0,0,1,.76,5.32,42.64,42.64,0,0,1-1.14,15.18c-2.72,10.22-9.1,17.7-18.13,23-5.83,3.45-10.27.76-16.09-1.62-5.56-2.29-11-4.44-16.07-7.79-5.31-3.52-8.8-8.23-12.16-13.56-3.52-5.58-6.89-11.7-7.4-18.41-.73-9.56-15.74-9.64-15,0,1,12.75,7.43,24.14,15.08,34.12,7.29,9.5,18,14.81,28.94,19.06,4.71,1.83,9.25,4.13,14.29,4.92,7,1.1,13.19-1.74,18.9-5.67,9.5-6.53,16.38-14.41,20.53-25.25,3.83-10,4-20.54,2.36-31-.71-4.59-2.2-9.2-5.7-12.46-4.69-4.38-11.22-4.2-17.19-5a74.1,74.1,0,0,1-30.13-11.21c-8.85-5.81-14.22-15.24-18.25-24.84-3.63-8.65-6.66-24.53,5.35-28.55,4.35-1.45,10.31-.83,14.79-.35,4.88.52,10.15,1.81,13.76,5.31C120.33,106.35,131,95.76,124,89Z"/></svg>