<svg id="Layer_1" data-name="Layer 1" xmlns="http://www.w3.org/2000/svg" viewBox="0 0 272.42 291.57"><defs><style>.cls-1{fill:#1c1b1a;}</style></defs><path class="cls-1" d="M137.71,124c-5.57-.87-11.18-2.53-16.81-1.07-4.8,1.25-9.17,4.29-12.84,7.55-7.28,6.45-11.36,15.6-12.87,25.07-1.85,11.62-1.91,23.34-1.63,35.07.22,9.15.5,18.53,3.89,27.16,3.56,9.08,11.15,17.3,21.77,15.69,10.09-1.53,17.93-10.79,23.32-18.78,11.22-16.63,13.81-37.36,15-56.9.8-13.23,1.06-26.56-.45-39.76-1.15-10.16-1.87-23-9.17-30.83-2.63-2.85-8-3-10.6,0-4.21,4.74-4.36,10.51-4.68,16.55a176.26,176.26,0,0,0,.19,21.56c1,14.73,1.86,29.51,4.28,44.1,2.28,13.81,6.09,27.45,12.49,40,5.64,11,13.67,22.11,26.8,24,4,.59,8-1,9.22-5.24,1-3.52-1.23-8.64-5.24-9.22-10.1-1.47-14.88-10.88-18.92-19.31-5.13-10.71-8-22.54-9.89-34.2s-2.47-23.58-3.39-35.41c-.5-6.56-1-13.14-.87-19.73.05-2.55.25-5.1.38-7.65.06-1.25.15-2.51.21-3.76,0-.78,1.18-2.36,0-1.06H137.3c3.71,4,3.85,13.13,4.55,18.34a179.56,179.56,0,0,1,1.26,27.43c-.3,15.85-1,32.24-5.84,47.45-1.84,5.8-16.16,36.06-24.08,25-3.36-4.69-4.09-11.76-4.39-17.36-.47-8.81-.58-17.73-.23-26.54.33-8.45.72-17.84,5.2-25.27a23.58,23.58,0,0,1,6.67-7.18c4.56-3.17,8.09-2,13.29-1.24,4,.62,8-1,9.22-5.24,1-3.55-1.24-8.61-5.24-9.22Z"/></svg>