<svg id="Layer_1" data-name="Layer 1" xmlns="http://www.w3.org/2000/svg" viewBox="0 0 272.42 291.57"><defs><style>.cls-1{fill:#1c1b1a;}</style></defs><path class="cls-1" d="M99.47,101.1c11.8,13.17,26.33,23.31,39.7,34.75,4.56,3.9,9.18,7.51,14.08,11,3.46,2.46,8.68,5.61,10.3,9.74.26.65.31.75-.64,2-1.92,2.62-5.36,4.28-8.12,5.82-7,3.88-13.9,8.15-21.36,11s-15,6.12-22.87,7.87c-7,1.56-14.48,3.22-19.34,9-6.19,7.34,4.37,18,10.6,10.61,3.35-4,9.19-4.29,14-5.41,6.9-1.6,13.46-4.53,20.07-7a150.46,150.46,0,0,0,19.33-9.27c6-3.28,12.51-6.19,17.46-11.08,8.44-8.32,6.95-19.23-.8-27.33-3.64-3.81-8.11-6.85-12.4-9.88s-7.63-6-11.6-9.32C135,112.84,121.3,103,110.08,90.49c-6.46-7.2-17,3.43-10.61,10.61Z"/></svg>