<svg id="Layer_1" data-name="Layer 1" xmlns="http://www.w3.org/2000/svg" viewBox="0 0 272.42 291.57"><defs><style>.cls-1{fill:#1c1b1a;}</style></defs><path class="cls-1" d="M117.75,64c0,7.11-2.06,13.94-2.81,21S114,99,112.52,106c-2,9.41,12.44,13.44,14.46,4,1.65-7.69,2.12-15.45,2.79-23.26s3-15,3-22.76c0-9.65-15-9.67-15,0Z"/><path class="cls-1" d="M161.78,72.22c0,9.21-2.76,17.53-5.41,26.24-1.72,5.65-1.87,13.56-6.15,18-6.71,7,3.88,17.57,10.6,10.61,6.26-6.49,7.32-15.14,9.67-23.44,3-10.47,6.31-20.35,6.29-31.4,0-9.65-15-9.66-15,0Z"/></svg>