<svg id="Layer_1" data-name="Layer 1" xmlns="http://www.w3.org/2000/svg" viewBox="0 0 272.42 291.57"><defs><style>.cls-1{fill:#1c1b1a;}</style></defs><path class="cls-1" d="M83.54,128.45c0,14.57,1.19,29.12,1.37,43.69.08,6.86,0,13.72,0,20.58,0,2.93-.06,5.87.12,8.8.13,2.26.62,4.65-.15,6.82H99.34c-1.5-7.21-1.26-14.6-1.07-21.91.18-7.15-.44-14.48,1.36-21.45a102.22,102.22,0,0,1,3.25-9.8c1-2.68,1.63-5.88,3.4-8.16a7.19,7.19,0,0,1,5.4-2.85c2.08-.23,6.18-.84,8,.14,3.54,1.87,4.82,8.75,5.57,12.2a96,96,0,0,1,2.33,21.22c-.12,11.7-1.83,23.42,6.29,33.06,6.23,7.4,16.79-3.26,10.61-10.6-3.65-4.33-2.33-12.36-2.09-17.56a117.34,117.34,0,0,0-1.8-25.44c-1.17-6.82-2.91-13.84-6.93-19.59-4.54-6.48-10.82-8.86-18.61-8.58-7.54.27-14.11,1.63-19.4,7.39s-7.92,15.53-10.06,23c-2.48,8.61-2.09,17.28-2.32,26.15s-.26,17.93,1.59,26.79c1.62,7.8,12.18,6.43,14.46,0,1.86-5.23.58-11.39.58-16.83,0-7.13,0-14.27,0-21.4-.09-15.23-1.35-30.42-1.39-45.64,0-9.65-15-9.67-15,0Z"/></svg>