<svg id="Layer_1" data-name="Layer 1" xmlns="http://www.w3.org/2000/svg" viewBox="0 0 272.42 291.57"><defs><style>.cls-1{fill:#1c1b1a;}</style></defs><path class="cls-1" d="M114.2,76.17C112,98,112.83,120,112.83,141.94q0,15.7,0,31.43,0,7.9,0,15.83c0,5.07.83,10.7,0,15.72l7.23-5.51-.43,0,3.79,1a10,10,0,0,1,1.37,1.39q.56,1.23.12-.12c.17-.5-.15-1-.2-1.91a57.35,57.35,0,0,1,.11-7.53c.06-.93.15-1.86.24-2.79,0-.55.11-1.09.18-1.64-.11.8-.1.81,0,0a15,15,0,0,1,2.79-5.65c4.18-5.53,10.11-9.85,15.56-14,7-5.36,14.06-10.77,21.54-15.43,6.2-3.87,14-8.4,21.51-8.69,2.91-.11,2.89,1.17,3.22,4.22.44,4,0,8.3,0,12.33,0,17.84-1.22,36.14,1.65,53.8.65,4,5.63,6.25,9.23,5.24,4.25-1.19,5.89-5.2,5.24-9.22-1.42-8.71-1.16-17.6-1.12-26.39,0-9.06-.09-18.12,0-27.18.08-7.77.68-16.76-5.09-22.9-5.34-5.69-13.2-5.43-20.24-3.84-16.72,3.78-31,15.51-44.25,25.7-9.63,7.39-22.67,16.35-24.65,29.29-1.47,9.6-3.8,27.68,9.45,29.35,2.92.37,6.77-2.57,7.23-5.5,1.62-10.29.5-21.33.51-31.73V143.84c0-22.54-.94-45.24,1.37-67.67.42-4-3.74-7.5-7.5-7.5-4.4,0-7.08,3.45-7.5,7.5Z"/></svg>