<svg id="Layer_1" data-name="Layer 1" xmlns="http://www.w3.org/2000/svg" viewBox="0 0 272.42 291.57"><defs><style>.cls-1{fill:#1c1b1a;}</style></defs><path class="cls-1" d="M73.27,112.79c4.3,8.52,8.89,16.89,13.4,25.29,4.14,7.73,8.54,15.38,11.21,23.75,2.22,6.94,4.45,15.26,9.91,20.44,2.53,2.41,5.89,3.25,8.53,5.38,2.84,2.29,4,6.51,5.8,9.59,2.9,5,7.68,10.78,13.84,11.5,5.31.63,9.51-2.58,11.67-7.25,4.56-9.9,3.78-23.78,3.68-34.38-.09-10.35-.72-20.74.35-31.05s3.49-20.34,3.46-30.73c0-9.65-15-9.67-15,0,0,7.88-1.39,15.54-2.51,23.3A155,155,0,0,0,136.06,152c.09,12.27.73,24.6-.62,36.83a44,44,0,0,1-.79,4.52c-.05.27-.55,2.23-.27,1.24-.46,1.64-1.07.85.71,0,.63-.28,3.9-1.35,3.8-.31,0-.34-2.23-2.18-2.52-2.56-1.82-2.39-2.9-5.35-4.37-8a26.59,26.59,0,0,0-5.63-7.22c-2.41-2.08-5.63-2.92-8-4.93-4.44-3.82-5.48-12.59-7.37-17.84-6.1-17-16.69-32.54-24.8-48.61-4.34-8.63-17.29-1-13,7.57Z"/></svg>