<svg id="Layer_1" data-name="Layer 1" xmlns="http://www.w3.org/2000/svg" viewBox="0 0 272.42 291.57"><defs><style>.cls-1{fill:#1c1b1a;}</style></defs><path class="cls-1" d="M105.3,107.33c16.21,0,32.4.7,48.57,1.93s32.4,3.78,48.65,3.57c9.64-.12,9.67-15.12,0-15-16.25.21-32.47-2.33-48.65-3.57s-32.36-1.94-48.57-1.93c-9.65,0-9.67,15,0,15Z"/><path class="cls-1" d="M152.87,117.31c4.18,2.87,6,8.53,7.6,13.07,2.11,5.91,4.79,11.68,6.34,17.77,1.71,6.69,2.16,13.55,2.83,20.4.77,7.93,2.19,15.68,3.64,23.5a105.86,105.86,0,0,1,1.89,21c-.09,5.05-.71,11.19-5.79,13.68-8.51,4.18-20.2-.66-27.86-4.61-6.72-3.45-12.91-7.8-17.71-13.7a111.26,111.26,0,0,1-7.55-11.19c-1.77-2.83-5-6.21-5.57-9.53-.64-4-5.63-6.24-9.22-5.24-4.26,1.19-5.89,5.2-5.24,9.23.62,3.88,3.08,6.83,5.16,10,2.79,4.32,5.38,8.76,8.43,12.91a66.44,66.44,0,0,0,19.12,17.62c12,7.32,27.2,13.15,41.38,9.94,17.24-3.91,20.43-21,19.68-36.23-.47-9.73-2.68-19.15-4.27-28.74-1.47-8.79-1.68-17.75-3.11-26.55s-5.06-17.15-8.15-25.59c-3-8.22-6.62-15.68-14-20.75-8-5.47-15.5,7.52-7.58,13Z"/></svg>