<svg id="Layer_1" data-name="Layer 1" xmlns="http://www.w3.org/2000/svg" viewBox="0 0 272.42 291.57"><defs><style>.cls-1{fill:#1c1b1a;}</style></defs><path class="cls-1" d="M81.67,77.54c-.17,12.07,2.2,23.93,3.29,35.92,1.11,12.33,2.49,24.64,3.48,37,1,11.9,1.62,23.8,3.06,35.66A305.73,305.73,0,0,1,94.06,222c0,9.65,15,9.67,15,0a298.12,298.12,0,0,0-2.44-34.95c-1.48-12.18-2.19-24.39-3.18-36.61-1-12-2.32-24-3.4-36-1.1-12.3-3.54-24.51-3.37-36.9.14-9.65-14.86-9.66-15,0Z"/><path class="cls-1" d="M125.14,125.89c-2.71,3.19-5.23,6.55-8.07,9.63s-5.77,4.89-9.2,7.06c-6.93,4.38-14,10.84-15.15,19.37-1.22,8.94,3.58,16.33,9.07,22.87a100.76,100.76,0,0,0,10.1,10.25c3.11,2.77,7,5.18,9.33,8.7,5.29,8,18.29.52,12.95-7.57-4.24-6.43-10.8-10.68-16.23-16-3.62-3.57-11.39-10.26-10.42-16.08s8.67-8.67,12.84-11.54c6.22-4.29,10.56-10.38,15.39-16.05,6.24-7.3-4.33-18-10.61-10.61Z"/></svg>