<svg id="Layer_1" data-name="Layer 1" xmlns="http://www.w3.org/2000/svg" viewBox="0 0 272.42 291.57"><defs><style>.cls-1{fill:#1c1b1a;}</style></defs><path class="cls-1" d="M178.71,44.19c-10-9.32-27.66-8.08-40.15-7.78-7.88.19-15.81-.2-23.42,2.3a58,58,0,0,0-18.9,10.93c-11.89,10-12.09,29.08-8,42.85,4,13.49,14.19,26.21,14.58,40.61A13.21,13.21,0,0,1,102,138s-.57.68-.11.33c-.35.27-2.43,1.27-1.63,1-3.9,1.51-8,1.21-12.49,1.14-9.16-.14-26.18-2.32-29,9.55-3.82,15.84,19,21.32,29.05,25.71a30.16,30.16,0,0,1,15.43,14.47c3.81,7.5,2,15.31,1.71,23.35-.35,8.49,1.37,17,8.18,22.6,5.57,4.62,12.48,6.22,18.83,9.36,4.12,2,7.92,4.68,12.34,6.1,4.93,1.6,10.59,1.86,15.74,2.35,10.87,1,21.79,1.15,32.7,1.15,9.65,0,9.67-15,0-15-8.67,0-17.35-.07-26-.62-7.77-.5-15.86-.64-22.77-4.5-5.37-3-11-4.92-16.55-7.53-5.37-2.53-7.46-5.22-7.52-11.29-.09-7.95,1.63-15.67.05-23.59-1.38-6.83-5.19-13.27-9.58-18.58A42.77,42.77,0,0,0,93.8,162.12c-5.92-2.54-13.53-4-18.61-8.1-.61-.5-1.08-1.3-1.7-1.75-.08-.06-.38-.88-.49-.89,1.72.19-1.56,4.44-1.43,4.58s4.46-.57,5.2-.6c4.31-.15,8.62.11,12.94.12,8.58,0,18.3-.85,24-8.16,7.41-9.57,3.61-23.74-.49-33.87-4.94-12.19-12.42-23.72-12.18-37.31.14-7.72,1.7-13.07,8.2-17.61,5.31-3.71,10.93-6.37,17.45-6.91a192.3,192.3,0,0,1,26.62-.29c4.21.25,12.08.88,14.84,3.46,7,6.59,17.67-4,10.6-10.6Z"/></svg>