<svg id="Layer_1" data-name="Layer 1" xmlns="http://www.w3.org/2000/svg" viewBox="0 0 272.42 291.57"><defs><style>.cls-1{fill:#1c1b1a;}</style></defs><path class="cls-1" d="M167.45,79.23c-21.71,13-34.83,35.57-48.12,56.3-8.06,12.58-16.65,24.94-23.72,38.12a162.22,162.22,0,0,0-8.89,19.77c-1.15,3.07-1.67,6.44-3,9.42-1.45,3.15-3.28,5.83-4.06,9.28-2.11,9.4,12.35,13.42,14.47,4,.66-3,2.53-5.46,3.69-8.26S99.6,202,100.6,199A119.07,119.07,0,0,1,109,180.46c6.72-12.34,14.7-24,22.29-35.77,12.19-18.93,23.86-40.6,43.76-52.51,8.28-5,.75-17.92-7.57-13Z"/></svg>