<svg id="Layer_1" data-name="Layer 1" xmlns="http://www.w3.org/2000/svg" viewBox="0 0 272.42 291.57"><defs><style>.cls-1{fill:#1c1b1a;}</style></defs><path class="cls-1" d="M91.31,85.15c1,18.69,10.06,36.05,12.38,54.59,1.19,9.55,2.24,18.92,4.55,28.29,1.16,4.74,2.14,9.49,3.15,14.27.64,3,2.24,6.13,1.93,9.25-.4,4,3.74,7.5,7.5,7.5,4.39,0,7.1-3.45,7.5-7.5.38-3.76-1-7.33-1.91-10.9-1.13-4.3-1.77-8.74-2.83-13.07a240.91,240.91,0,0,1-4.89-27.84,178.13,178.13,0,0,0-5.86-27.17c-2.49-8.84-6-18.21-6.52-27.42-.54-9.59-15.54-9.66-15,0Z"/><path class="cls-1" d="M102.48,103.66c4.15.2,8-.72,12.08-1.45a63.49,63.49,0,0,1,12.71-.52c7.2.17,14.47-.18,21.65.37a29.23,29.23,0,0,1,16.93,6.57c4.47,3.63,4.76,7.61,4.2,13.24a47.52,47.52,0,0,1-6.86,19.36c-4.09,6.85-9.75,11.93-14.88,17.9-4.57,5.33-7.57,10.83-14.22,13.87-7,3.2-14.85,3.67-22.44,3.71-9.65.06-9.67,15.06,0,15,13.86-.08,30.07-2.2,40.08-12.89,4.66-5,8.74-10.52,13.38-15.56a82,82,0,0,0,13-18.14c5.74-11.31,10.49-27.21,4.59-39.36C177.55,95,164.24,89,153.07,87.51c-7.92-1-15.9-.57-23.86-.76a93.36,93.36,0,0,0-14.29.28c-4.2.54-8.18,1.83-12.44,1.63-9.65-.46-9.63,14.55,0,15Z"/></svg>