<svg id="Layer_1" data-name="Layer 1" xmlns="http://www.w3.org/2000/svg" viewBox="0 0 272.42 291.57"><defs><style>.cls-1{fill:#1c1b1a;}</style></defs><path class="cls-1" d="M145.77,100.33c-7.87,4.53-17.14,6-25.4,9.79-8.7,4-17,8.5-25.88,12.13-9.62,3.94-19,8.35-28.51,12.57-8,3.57-16.19,7-22.35,13.47-1.73,1.82-2.85,4.8-1.92,7.29,2.37,6.4,7.8,9.12,13.51,12.08,6.27,3.26,11.83,7.16,18.51,9.69,8,3,16.54,4.72,24.67,7.48,3.91,1.32,7.75,2.9,11.68,4.11s7.64,1.65,10.92,4.13,8.36.49,10.26-2.69c2.29-3.82.53-7.83-2.69-10.26-5.86-4.43-14.24-5.55-21.07-8-7.38-2.63-14.83-4.85-22.38-6.92a64.49,64.49,0,0,1-17.23-7.46c-2.35-1.46-4.6-2.79-7.07-4-1-.53-2.14-1-3.14-1.68s-2.24-2.42-1.51-.46l-1.93,7.3c5.6-5.89,13.81-8.65,21.08-11.91,9.49-4.25,18.92-8.54,28.57-12.41,8.55-3.43,16.4-8.2,24.82-11.85,8.14-3.53,16.87-5,24.63-9.44,8.36-4.82.81-17.79-7.57-13Z"/></svg>