<svg id="Layer_1" data-name="Layer 1" xmlns="http://www.w3.org/2000/svg" viewBox="0 0 272.42 291.57"><defs><style>.cls-1{fill:#1c1b1a;}</style></defs><path class="cls-1" d="M146.43,93.43c-11.72-1-23.84-2.51-35.58-1.19-4.7.54-9.79,1.61-13.3,5-3.26,3.17-5.36,8.31-6.37,12.68-5.28,23,18.64,35,36.61,40.43,11.07,3.35,22.48,5.29,33.77,7.69,5.31,1.12,10.63,2.14,16,3.13,3,.55,5.94,1.12,8.87,1.86,1.57.39,4.89.63,6,1.73,1.7,1.72,1.16,6.92.4,9.27-1.63,5-5.1,9.83-8.38,13.92-6,7.45-14,12.53-22.51,16.65-4.24,2.06-9.28,4.09-14.09,3.78s-8.24-4.12-11.54-7.07c-4.16-3.73-8.48-7.13-12.22-11.31a155,155,0,0,1-11-14.47c-5.51-7.83-18.52-.35-13,7.58,6.49,9.23,13.11,18.3,21.84,25.57,7.54,6.27,14.18,13.69,24.53,14.62,10.17.91,20.52-4,29.08-9a73,73,0,0,0,23.22-20.63c6.62-9.09,11.73-19.38,8.71-30.81C204.6,152.18,196,149.67,186,147.6c-11.54-2.4-23.13-4.52-34.67-6.92-11.23-2.33-23-4.77-33.28-10-4.67-2.38-9.44-5.35-11.48-10.43-1.32-3.26-1.4-9.49,1.18-11.94,3-2.82,12.65-1.49,16.65-1.37,7.37.21,14.72.9,22.07,1.49,9.63.78,9.58-14.23,0-15Z"/></svg>