<svg id="Layer_1" data-name="Layer 1" xmlns="http://www.w3.org/2000/svg" viewBox="0 0 272.42 291.57"><defs><style>.cls-1{fill:#1c1b1a;}</style></defs><path class="cls-1" d="M109.13,76.43a95.76,95.76,0,0,1,19.66,7.23c2.2,1.13,5.28,2.1,6.67,4.27s1.38,5.55,1.35,8c-.07,5.44-1.48,9.93-5.69,13.49-5.75,4.87-12.7,8.45-18.78,12.92-5,3.71-9.46,7.57-10.87,14-1.5,6.81-.18,14.24.78,21,1.12,7.88,2.71,15.68,3.12,23.65.44,8.58.12,17.19.09,25.78,0,9.65,15,9.66,15,0,0-9.51.47-19.08-.26-28.57-.67-8.61-2.51-17.05-3.59-25.6-.62-4.92-2.53-12.2,1.57-15.94,6.09-5.56,13.95-9.24,20.51-14.2A33.87,33.87,0,0,0,150.3,84.83C148,77.64,142.8,74,136.36,70.71A114.45,114.45,0,0,0,113.12,62c-9.33-2.5-13.32,12-4,14.47Z"/><path class="cls-1" d="M118.47,251c9.65,0,9.66-15,0-15s-9.67,15,0,15Z"/></svg>