<svg id="Layer_1" data-name="Layer 1" xmlns="http://www.w3.org/2000/svg" viewBox="0 0 272.42 291.57"><defs><style>.cls-1{fill:#1c1b1a;}</style></defs><path class="cls-1" d="M71.46,79.65c-.6,5.67-2.55,11.31-3.33,17-.8,5.92-1.52,11.87-2.16,17.81-1.31,12.09-1.7,24.26-1.81,36.42-.1,12,0,24,0,36,0,6.14,0,12.29-.07,18.43a49.14,49.14,0,0,0,.46,9.31c.47,2.77,1.52,5.27,1.41,8.1-.39,9.66,14.61,9.64,15,0,.22-5.63-2-10.83-1.9-16.49.12-6.13.1-12.25.1-18.38,0-12.32-.11-24.64,0-37,.11-11.84.48-23.68,1.71-35.46.61-5.88,1.28-11.78,2.12-17.63.88-6.13,2.82-12,3.47-18.16.43-4-3.75-7.5-7.5-7.5-4.41,0-7.07,3.46-7.5,7.5Z"/><path class="cls-1" d="M71.62,96.32H88.13c9.65,0,9.67-15,0-15H71.62c-9.65,0-9.67,15,0,15Z"/><path class="cls-1" d="M75.29,96.32c4.48-.47,8.71.74,13.11,1.37,5.34.77,10.77,1.46,16.13,2,11.49,1.14,23.43.3,35,.3,9.66,0,9.67-15,0-15-11.53,0-23.48.86-35-.3-4.77-.49-9.61-1.08-14.36-1.8-4.94-.76-9.84-2.1-14.88-1.57-4,.43-7.5,3.14-7.5,7.5,0,3.73,3.45,7.94,7.5,7.5Z"/><path class="cls-1" d="M73.46,158.69h58.7c9.65,0,9.66-15,0-15H73.46c-9.66,0-9.67,15,0,15Z"/></svg>