<svg id="Layer_1" data-name="Layer 1" xmlns="http://www.w3.org/2000/svg" viewBox="0 0 272.42 291.57"><defs><style>.cls-1{fill:#1c1b1a;}</style></defs><path class="cls-1" d="M128.78,80c-15.59.32-29,16.19-37,27.95-4.83,7.06-8.23,14.72-11.84,22.43-4,8.46-8,17.09-9.94,26.29-2.88,13.9-4.12,31.92,2.16,45.07,7.17,15,20.4,28.28,33.61,38.07,3.28,2.43,8.34.52,10.26-2.69,2.27-3.79.55-7.86-2.69-10.26-10.72-7.94-22-19.45-27.7-31.63-2.37-5-2.6-10.86-2.63-16.31a88.68,88.68,0,0,1,1.46-18.26c1.53-7.39,4.51-14.31,7.68-21.13,3.1-6.65,6-13.42,9.79-19.7a77.61,77.61,0,0,1,13-16.32c3.46-3.25,8.89-8.41,13.88-8.51,9.64-.2,9.68-15.2,0-15Z"/></svg>