<svg id="Layer_1" data-name="Layer 1" xmlns="http://www.w3.org/2000/svg" viewBox="0 0 272.42 291.57"><defs><style>.cls-1{fill:#1c1b1a;}</style></defs><path class="cls-1" d="M71.89,63.59c7,2,13.57,4.88,20.27,7.63a213.44,213.44,0,0,0,21.24,7.12c14.12,4.15,28.51,8.48,43,11.15,3.54.65,7.16.83,10.71,1.47,1.69.31,3.53,1.16,5.2,1.28,1.16.09.12.4.28.09-.58-3.09-1-3.91-1.26-2.44A18.59,18.59,0,0,1,170,92.1c-7.47,9.69-19.2,15.93-28.62,23.49-9,7.22-18.74,14.32-26,23.38-2.84,3.53-5.86,7.52-6.17,12.22a11.5,11.5,0,0,0,8.63,11.92c13.94,3.8,27.39,9.15,41.61,12.37,11,2.49,22.44,5.12,32.6,10.2,3.29,1.65,6.28,2.93,3.64,6.5-3.84,5.19-9.85,9.57-15.34,12.85a88.54,88.54,0,0,1-44,12.59c-9.64.12-9.67,15.12,0,15,15.2-.19,29.61-4,43.35-10.33a80.78,80.78,0,0,0,18.67-11.8c4.86-4.15,10.48-9,12.59-15.26,4.23-12.43-6-20.47-16.22-24.65-12.79-5.22-25.91-8.16-39.29-11.42a216.69,216.69,0,0,1-23-7.26c-1.44-.53-9-4.39-10.22-3.26-.09.08,2.13,3.86,2,3.87a27.33,27.33,0,0,0,1.64-2.6,55.47,55.47,0,0,1,8.4-8.93c6.18-5.45,12.64-10.76,19.14-15.81,10.38-8.06,24-15.38,30.73-27.15,2.94-5.16,3.57-12.09-1-16.53-3.39-3.28-8.43-4.44-12.94-5.18-2.87-.47-5.76-.77-8.65-1.13-1.78-.22-.23,0-1-.16-2.18-.44-4.35-1-6.52-1.5q-13.67-3.22-27.18-7c-8.53-2.38-17.18-4.68-25.48-7.78-8.47-3.17-16.59-7.18-25.32-9.64-9.31-2.61-13.29,11.86-4,14.47Z"/></svg>