<svg id="Layer_1" data-name="Layer 1" xmlns="http://www.w3.org/2000/svg" viewBox="0 0 272.42 291.57"><defs><style>.cls-1{fill:#1c1b1a;}</style></defs><path class="cls-1" d="M51.32,101.66c.25,9.69,7.06,17.26,11.76,25.23a312.68,312.68,0,0,1,16,30.82c4.79,10.66,9.31,21.43,14.08,32.1,2.39,5.34,5,10.53,7.61,15.76s3.33,10.49,4.36,16.32c1.1,6.21,11,7.42,13.71,1.79,3.62-7.5,3.31-16.17,7.08-23.74,1.78-3.59,3.64-7.2,5.76-10.61a28.37,28.37,0,0,1,3.18-4.35,17.58,17.58,0,0,1,2.18-2q-2.78-.3-.45,1.18c.76,1.54,2.59,3.12,3.58,4.59,1.17,1.76,2.26,3.58,3.37,5.39a75.54,75.54,0,0,0,6.07,8.87c5.92,7.08,15.51,8.2,21.09-.11,4.29-6.38,3.65-14.79,4.66-22.11,1.29-9.23,3.07-18.37,5.17-27.45,2.27-9.8,4.64-19.57,6.67-29.42,1.63-7.9,4.3-15.88,3.8-24-.58-9.59-15.58-9.66-15,0,.49,7.94-2.41,16-4,23.75-1.9,9.24-4.27,18.37-6.36,27.56s-3.73,18.22-5,27.44c-.48,3.5-.82,7-1.16,10.5-.11,1.1-1.09,3.79-.86,4.7-.82,1.46.32,1.66,3.43.62a13.49,13.49,0,0,1-1.53-1.68c-4.91-6.1-7.78-13.55-13.34-19.22-6.72-6.86-14.81-6.84-21.69-.38-5.59,5.26-9.13,12.49-12.54,19.25a61.93,61.93,0,0,0-4.7,12.33c-.9,3.53-.79,8.14-2.37,11.41l13.71,1.79c-1-5.62-1.69-10.61-4-15.89-2.15-4.92-4.84-9.58-7.08-14.45-4.89-10.61-9.41-21.39-14.11-32.08-4.46-10.12-9.24-20-14.68-29.66-2.53-4.49-5.07-9-7.93-13.28-2.07-3.12-5.43-7-5.53-10.88-.26-9.63-15.26-9.67-15,0Z"/></svg>