<svg id="Layer_1" data-name="Layer 1" xmlns="http://www.w3.org/2000/svg" viewBox="0 0 272.42 291.57"><defs><style>.cls-1{fill:#1c1b1a;}</style></defs><path class="cls-1" d="M56.43,105.13c3.66,4.12,6.94,8.57,10.67,12.62a148.55,148.55,0,0,0,12.52,11.53c8.84,7.62,17.11,15.82,25.27,24.15,7.69,7.84,15.52,15.14,23.82,22.32,8.76,7.6,16.86,16.45,24.94,24.77,6.74,6.94,17.34-3.67,10.61-10.6-7.89-8.13-15.81-16.74-24.3-24.22s-16.57-14.83-24.46-22.88-16-16.14-24.59-23.56c-4.3-3.71-8.7-7.36-12.62-11.48S70.89,98.85,67,94.53c-6.43-7.22-17,3.41-10.6,10.6Z"/><path class="cls-1" d="M133.47,109.2c-13.68,13.61-25.4,29-38.3,43.29-6.27,7-13.33,13.22-18.9,20.78A117,117,0,0,0,69.19,184c-1.81,3.14-3,6.86-5.42,9.62-6.29,7.27,4.27,17.93,10.6,10.61,5.32-6.14,8.38-14,13-20.74,5.19-7.53,12.3-13.57,18.41-20.35,12.9-14.32,24.61-29.68,38.3-43.29,6.85-6.82-3.75-17.43-10.61-10.61Z"/></svg>