<svg id="Layer_1" data-name="Layer 1" xmlns="http://www.w3.org/2000/svg" viewBox="0 0 272.42 291.57"><defs><style>.cls-1{fill:#1c1b1a;}</style></defs><path class="cls-1" d="M95.77,88.82c-.28,16.49-3.4,32.78-3.67,49.27s0,33.2,0,49.79c0,9.65,15,9.67,15,0,0-16.59-.27-33.21,0-49.79s3.39-32.78,3.67-49.27c.16-9.65-14.84-9.65-15,0Z"/><path class="cls-1" d="M61.08,94.49c20.11.05,40.21,1,60.31,1.53s40.51.3,60.76.3c9.65,0,9.66-15,0-15-20.25,0-40.51.22-60.76-.3s-40.2-1.48-60.31-1.53c-9.66,0-9.67,15,0,15Z"/></svg>