<svg id="Layer_1" data-name="Layer 1" xmlns="http://www.w3.org/2000/svg" viewBox="0 0 272.42 291.57"><defs><style>.cls-1{fill:#1c1b1a;}</style></defs><path class="cls-1" d="M149.22,97.83c-6.28.08-12.44.42-18.05,3.55a44,44,0,0,0-14.39,13.74c-8,12-8.1,27.77-8.07,41.61,0,14.51,3.83,27.81,16.28,36.45,9.54,6.63,21.41,7.84,32.56,9.61,5.94,1,11.74,2.84,17.7,3.56,7.51.92,13-2.42,17.18-8.49A59.11,59.11,0,0,0,201.68,177c1.74-8.41.9-16.84,1.19-25.34.27-8.06,2.93-15.78,4.15-23.72,1.09-7.06,1.89-14.71,1.2-21.86-1.56-16.3-17.08-19.86-30.39-23.78-8.34-2.46-18-6.61-26.82-6.43s-16.45,6.86-22.82,12.32C114.6,99.85,105.11,115,92.56,127.55c-6.83,6.84,3.78,17.45,10.6,10.6,9.13-9.14,16.4-19.93,25.26-29.33a126,126,0,0,1,12.33-11.68,53.84,53.84,0,0,1,6.86-4.86c3.27-1.86,5.49-1.39,9-.45,6.69,1.79,13.36,3.74,20,5.74,4.48,1.35,11.08,2.37,14.8,5.5,3,2.55,2,7.43,1.82,11a110.84,110.84,0,0,1-2.42,19c-1.49,6.85-2.88,13.41-3,20.46-.09,6.76.71,13.73-.81,20.39a46.84,46.84,0,0,1-6.64,15c-1,1.52-1.37,2.31-2.91,2.65-2,.43-5.06-1.11-7-1.57-15.87-3.72-40.66-2-45.89-21.8-1.6-6.11-.95-13.15-.83-19.4a67.44,67.44,0,0,1,2.84-19.62,27.2,27.2,0,0,1,9-12.61c4.29-3.58,8.23-3.68,13.64-3.75,9.65-.12,9.68-15.12,0-15Z"/></svg>