<svg id="Layer_1" data-name="Layer 1" xmlns="http://www.w3.org/2000/svg" viewBox="0 0 272.42 291.57"><defs><style>.cls-1{fill:#1c1b1a;}</style></defs><path class="cls-1" d="M116.9,80.31c-12.1,3.59-25.66,7.07-34.69,16.51-5.26,5.49-7.78,12.43-9.15,19.8a19.46,19.46,0,0,0,1.3,12.45c1.67,3.5,4.54,6.13,6.58,9.39,7.73,12.42,21.14,25.67,37.28,23.55,15.52-2,25.39-20.48,28.8-34.21,1.92-7.76,2.55-16.41.8-24.26-1.47-6.64-4.45-14.82-10.56-18.48-4.46-2.68-9.36.06-11,4.48-3.27,8.73-2.12,18.12-2,27.22.08,10.78,0,21.57,0,32.35v65c0,9.66,15,9.67,15,0v-63c0-10.47,0-20.94,0-31.42,0-8.61-1.58-17.92,1.5-26.15l-11,4.48c1.67,1,3.58,8.28,3.94,11.06A40.36,40.36,0,0,1,131,128.79c-2.42,6-5.76,13.36-11.37,17-5.25,3.43-12.19-.49-16.58-3.78-5.71-4.27-8.55-10.65-12.81-16.15-2.53-3.25-2.9-4.62-1.87-8.68.72-2.86,1.3-5.61,3.05-8,6.4-8.9,19.67-11.45,29.51-14.38,9.24-2.74,5.31-17.22-4-14.46Z"/></svg>