<svg id="Layer_1" data-name="Layer 1" xmlns="http://www.w3.org/2000/svg" viewBox="0 0 272.42 291.57"><defs><style>.cls-1{fill:#1c1b1a;}</style></defs><path class="cls-1" d="M72.18,108.8c11.68,9.65,21.66,20.89,33.83,30,13,9.7,25.62,19.78,37.72,30.56,7.18,6.4,17.83-4.17,10.6-10.61-12.18-10.85-24.9-21.12-38-30.85-12.08-9-22-20.12-33.54-29.68-7.39-6.11-18.06,4.45-10.61,10.6Z"/><path class="cls-1" d="M176.74,103.7c-3.16,3.3-4.31,7.33-6.05,11.43-2.31,5.43-5.86,10.45-8.79,15.56-6.11,10.67-11.67,21.66-17.9,32.27-6.07,10.35-12.79,20.33-19.24,30.45a173.11,173.11,0,0,1-23.23,29.52c-6.84,6.83,3.76,17.44,10.61,10.61,17.22-17.17,30.46-39.08,42.92-59.81,6.21-10.34,11.83-21,17.62-31.58,2.86-5.23,6-10.28,8.91-15.51a63.75,63.75,0,0,0,3.42-7.18c.63-1.62,1.1-3.86,2.34-5.15,6.68-7-3.91-17.6-10.61-10.61Z"/></svg>