<svg id="Layer_1" data-name="Layer 1" xmlns="http://www.w3.org/2000/svg" viewBox="0 0 272.42 291.57"><defs><style>.cls-1{fill:#1c1b1a;}</style></defs><path class="cls-1" d="M94.75,79.72c4.8.28,9.3,2,13.88,3.31a108.08,108.08,0,0,0,14.5,2.87c9.14,1.33,18.32,2.58,27.51,3.53,3.86.41,12.88.15,13.85,4.71.85,4,.11,8.9-.2,12.91-.42,5.23-1.16,10.42-1.76,15.62-2.17,19.07.5,39.45,5.87,57.86,2.59,8.86,5.7,17.29,6.49,26.56.38,4.34.27,8.67.49,13,.14,2.82,1.46,7.94.05,10.53-1.18,2.16-4.92,2-7,2.06-4.09.11-8.27,0-12.35-.2-5.09-.24-10-1.23-15.11-1.66-4.23-.37-8.53-.19-12.12-2.74-7.89-5.59-15.4,7.41-7.57,12.95s19.47,4.91,28.56,6c8.45,1,19.14,2,27.45-.42,9.88-2.86,13.81-11.17,13.47-20.91-.35-10.24-.52-20.56-2.51-30.64-2.12-10.71-6.37-20.78-8.37-31.55-2.11-11.33-3.83-22.83-2.94-34.36.85-11.06,3.12-22,2.69-33.15-.36-9.4-4.53-16-13.69-19-9.79-3.21-21.29-3.25-31.48-4.57-6.7-.86-13.51-1.61-20-3.35s-12.75-3.94-19.62-4.34c-9.64-.55-9.61,14.45,0,15Z"/></svg>