<svg id="Layer_1" data-name="Layer 1" xmlns="http://www.w3.org/2000/svg" viewBox="0 0 272.42 291.57"><defs><style>.cls-1{fill:#1c1b1a;}</style></defs><path class="cls-1" d="M147.79,56.24c-2.76,5.28-3.27,10.86-4.42,16.6a105.52,105.52,0,0,0-1.88,17.09c-.48,13.39-2,26.58-2,40,0,7-.07,14,0,21,0,6,.85,12.29,0,18.32-.87,6.19-3.33,11.88-3.73,18.19-.45,7,0,14.14.06,21.17,0,9.65,15,9.67,15,0,0-6.41-.31-12.84-.12-19.25.17-5.91,2.54-11.3,3.43-17.1.91-6,.59-11.88.42-17.87-.19-6.82-.05-13.65,0-20.46,0-12.71,1-25.08,1.77-37.75.35-5.56.11-11.22,1.08-16.72.86-4.93,1.11-11.2,3.44-15.65,4.48-8.54-8.47-16.14-13-7.57Z"/></svg>