<svg id="Layer_1" data-name="Layer 1" xmlns="http://www.w3.org/2000/svg" viewBox="0 0 272.42 291.57"><defs><style>.cls-1{fill:#1c1b1a;}</style></defs><path class="cls-1" d="M122.65,119c-11.59-10.39-27.12.34-36,8.69-11.4,10.67-19.27,25.16-13.15,40.8,2.67,6.86,7.24,13,11.56,18.86,4.8,6.57,9.61,11.09,17.9,12.35,7,1.06,14.5,2.17,20.93-1.67,3.19-1.92,6.39-5.1,7.46-8.77.48-1.62.26-3.33.52-5a48.52,48.52,0,0,1,1.7-5.87c5.65-19,6.25-38.88,6.47-58.55H125c.38,5.77-1.55,11.59-2.09,17.33-.62,6.75-.67,13.53-.7,20.29,0,5.22-.54,10.79,1.27,15.79a21.66,21.66,0,0,0,4.37,6.78,55.13,55.13,0,0,1,4.35,6.62c5.95,9.2,17.1,11,27.29,11.52,9.81.53,19.47-2.21,24.86-11,5.07-8.24-7.9-15.78-13-7.57-3,4.89-10.81,3.82-15.66,3.21-2.92-.37-7.12-.64-9.52-2.56-2.72-2.18-4-6.58-6.31-9.28-2.51-2.91-2.74-4.37-2.73-8.28,0-5,0-9.95.15-14.92a103.62,103.62,0,0,1,1.13-14.62c.75-4.45,1.85-8.8,1.55-13.34-.63-9.55-14.89-9.75-15,0-.18,16.07-.91,31.46-4.05,47.29-.71,3.55-1.84,7-2.83,10.43-.67,2.36-.51,6.32-1.85,7.47-2.58,2.23-12.44.36-15-1.46s-4.39-5.42-6.14-7.94c-1.9-2.74-3.87-5.43-5.56-8.29-3-5.1-4.56-11.25-2.08-17,2.62-6,8.48-11.28,13.47-15.33,2.11-1.71,4.38-4,7-4.74a9.74,9.74,0,0,1,2.08-.29c1.32-.1,3.4.82,2-.47,7.17,6.43,17.82-4.15,10.61-10.6Z"/></svg>