<svg id="Layer_1" data-name="Layer 1" xmlns="http://www.w3.org/2000/svg" viewBox="0 0 272.42 291.57"><defs><style>.cls-1{fill:#1c1b1a;}</style></defs><path class="cls-1" d="M102.25,72.51C98.55,76,96,80.35,92.62,84.16c-3.53,4-7.24,7.85-10.45,12.16A145.3,145.3,0,0,0,65.9,125.08c-3.63,8.5-5.13,17.28-6.44,26.37-1.14,8-2.14,16.05-1.38,24.08,1.61,16.93,10.54,29.37,26.71,35.05,11.36,4,33.33,8.92,38.89-6.23,3.25-8.84,1.17-20.23-3.66-28-3.27-5.26-5-11.25-8.47-16.33-3.2-4.68-5.25-10.09-8.67-14.58l.76,5.78a3.07,3.07,0,0,1-1.5,2.14l.6-.35c-.79-.21.7-.19,1.23-.29a30.48,30.48,0,0,1,4.91-.49,120,120,0,0,1,12.86.5,298.82,298.82,0,0,0,36.16.33,100.08,100.08,0,0,1,11.22-.27c2.23.15,2,.89,1.55-.74-.68-2.69-.4.09-.42.42-.21,2.8.72,6,1.06,8.78a71.07,71.07,0,0,1,.56,11.2c-.27,7.3-2,14.47-2.2,21.81-.24,7.66.07,15.32.09,23,0,9.65,15,9.67,15,0,0-8.57-.42-17.15,0-25.71s2.56-16.94,2-25.62c-.25-3.73-.88-7.4-1.29-11.11-.32-2.84-.36-5.75-1.36-8.45-2.78-7.52-10.67-8.61-17.75-8.62-14.39,0-28.83,1.24-43.21.12-9-.7-20.83-2.44-28.85,2.76a11.78,11.78,0,0,0-4.89,6.08c-1.45,4.46,1.51,7.16,3.36,10.88a63.31,63.31,0,0,0,4.92,8.77c2.49,3.51,3.74,7.13,5.54,11,1.55,3.34,3.92,6.15,5.47,9.46a17.6,17.6,0,0,1,1.28,7.45,35.85,35.85,0,0,1-.09,3.74c0,.43-.64,1.86-.3,1.28.48-.79-1,.1-2.22.24-4.58.49-9.38-.68-13.75-1.89-4.86-1.35-7.59-2.07-11.4-4.69-8.81-6.07-9.76-17.37-9.29-27.18.69-14.25,3.24-28.89,10-41.55,4-7.38,8.06-15.41,13.48-21.82,2.55-3,5.37-5.81,7.9-8.85,2.89-3.48,5.26-7.3,8.57-10.41,7-6.63-3.57-17.22-10.61-10.61Z"/></svg>