<svg id="Layer_1" data-name="Layer 1" xmlns="http://www.w3.org/2000/svg" viewBox="0 0 272.42 291.57"><defs><style>.cls-1{fill:#1c1b1a;}</style></defs><path class="cls-1" d="M98.45,79.26a41.17,41.17,0,0,0-4.89,17c-.48,5.41-1.78,10.66-1.75,16.12,0,13.46-.18,26.94,0,40.4.2,12.35,5.47,21.06,12,31.14q4.26,6.63,8.52,13.25c3.42,5.33,8.67,6.05,13.59,9.29,8.08,5.33,15.6-7.65,7.57-13-3.57-2.35-7.28-2.52-9.32-5.9-2.46-4.05-5.26-8-7.84-11.92S111,168,109,163.81c-2.26-4.78-2.17-9.64-2.21-14.83-.09-11.3.28-22.6,0-33.9-.1-5.13.92-9.68,1.41-14.74.47-4.87.71-9.14,3.15-13.51,4.7-8.44-8.25-16-13-7.57Z"/><path class="cls-1" d="M79.41,207.22c7.27-1.22,14.38-6,21-9.15a85.26,85.26,0,0,0,19.17-13.3c5.15-4.57,11.37-8.47,14.43-14.86,3.46-7.24,4.6-15.29,4.82-23.25.43-16.28-.34-32.63-.21-48.93.09-11,.08-23.69-11.76-28.77-6.69-2.87-14.38-2.67-20.25,1.87-6.1,4.72-10.89,11.41-11.88,19.09-.52,4,3.82,7.5,7.5,7.5,4.48,0,7-3.46,7.5-7.5.24-1.91,3.61-5,4.86-6.19,1.42-1.33,2.19-1.88,4.14-1.69,4.09.4,4.74,3.68,4.92,7.19.72,14.41-.24,29,0,43.39.12,7.41.79,15.07-.55,22.41-.57,3.12-1.29,6.78-3.14,9.4s-5,4.47-7.41,6.52c-5.61,4.76-10.73,9.52-17.31,13-3.19,1.66-6.51,3.07-9.73,4.67s-6.3,3.54-10,4.17c-9.5,1.59-5.47,16.05,4,14.46Z"/></svg>