<svg id="Layer_1" data-name="Layer 1" xmlns="http://www.w3.org/2000/svg" viewBox="0 0 272.42 291.57"><defs><style>.cls-1{fill:#1c1b1a;}</style></defs><path class="cls-1" d="M146.54,66.28c-9.31-.85-18.35,2.32-27.14,4.9-7,2.06-14.7,2.72-19.67,8.71-5.81,7-6,17.59-4.39,26.12,1.57,8.35,5.6,18.18,11.76,24.2,2.92,2.85,6.51,4.85,9.76,7.26,3.65,2.71,6.33,6.44,9.61,9.55a46.92,46.92,0,0,0,10.07,6.92c3.79,2.08,5.48,4.9,7.17,8.87,3.1,7.32,5,16.5,2.63,24.3-2.12,7.07-8.39,12.24-15,15-16.61,6.93-36.22-.36-48.26-12.58-6.78-6.89-17.39,3.72-10.6,10.61,12.1,12.28,29.45,20.16,46.86,19.53s35.28-10.3,41.11-27.36c3-8.64,2.15-18.59-.18-27.27-2.38-8.85-6.36-18.14-14.43-23.11-3.51-2.16-6.91-3.69-9.86-6.65-3.41-3.45-6.41-7-10.34-9.92-3.08-2.29-6.72-4.1-9.15-7.14-2.81-3.51-4.51-8.33-5.77-12.58-1.31-4.42-2.23-10.64-.13-15,1.23-2.57,3.65-2.65,6.29-3.29,9.73-2.32,19.51-7,29.69-6.08,9.61.89,9.55-14.12,0-15Z"/><path class="cls-1" d="M111.52,60c0,29.18-.43,58.41,0,87.58A134.84,134.84,0,0,0,118.46,187c3.51,10.94,7.82,23.78,6.82,35.4-.83,9.61,14.18,9.56,15,0,1-11.61-2.85-24.12-6.06-35.17-3.87-13.26-7.47-25.64-7.68-39.6-.45-29.17,0-58.4,0-87.58,0-9.65-15-9.66-15,0Z"/></svg>