<svg id="Layer_1" data-name="Layer 1" xmlns="http://www.w3.org/2000/svg" viewBox="0 0 272.42 291.57"><defs><style>.cls-1{fill:#1c1b1a;}</style></defs><path class="cls-1" d="M124.07,80.63c-3.95,5.17-4.75,12.43-6.07,18.63-1.46,6.89-2.61,13.83-3.56,20.81-1.87,13.78-4.55,29.19-.5,42.77,3.62,12.15,8.76,23.11,18.15,31.94s21.47,12.64,34.23,12.71c9.65,0,9.66-15,0-15s-18.43-2.87-25.32-10c-7.21-7.43-11-16.65-13.41-26.59-1.28-5.34-.54-11.25-.17-16.68.4-6,1-12.06,1.88-18s1.9-12,3.16-18c1-4.85,1.49-11,4.56-15,2.48-3.24.48-8.37-2.69-10.27-3.83-2.29-7.81-.5-10.26,2.69Z"/><path class="cls-1" d="M103,142.82h64.66c9.66,0,9.67-15,0-15H103c-9.65,0-9.67,15,0,15Z"/></svg>