<svg id="Layer_1" data-name="Layer 1" xmlns="http://www.w3.org/2000/svg" viewBox="0 0 272.42 291.57"><defs><style>.cls-1{fill:#1c1b1a;}</style></defs><path class="cls-1" d="M100.48,87.54c-1.23,11.55-3.21,23-3.71,34.68-.41,9.47.11,20.47,9.54,25.58,4,2.19,8.76,2.65,13.25,3.12,4.74.5,9.43,1.23,14.15,1.85,12.18,1.58,24.4,1,36.64,1,9.65,0,9.67-15,0-15-10.44,0-20.93.58-31.35-.37-4.05-.37-8.06-1.05-12.09-1.62-3.66-.51-7.52-.5-11.11-1.4-3.09-.77-3.8-2-4.09-5.24a77.73,77.73,0,0,1,.34-12.58c.75-10,2.37-20,3.43-30,.43-4-3.75-7.5-7.5-7.5-4.41,0-7.07,3.46-7.5,7.5Z"/><path class="cls-1" d="M144.78,120.4c-3.74,18.67-9.27,36.64-10.66,55.74-1.4,19.26-2.4,38.83-2.45,58.15,0,9.66,15,9.67,15,0,.05-18.72,1.1-37.62,2.32-56.3,1.2-18.38,6.66-35.64,10.25-53.6,1.89-9.43-12.57-13.46-14.46-4Z"/></svg>