<svg id="Layer_1" data-name="Layer 1" xmlns="http://www.w3.org/2000/svg" viewBox="0 0 272.42 291.57"><defs><style>.cls-1{fill:#1c1b1a;}</style></defs><path class="cls-1" d="M166.05,86.57c-10.75-5.15-22.29-6.76-34.06-7.72-11.36-.92-22.55-2.06-33.82-3.7-5-.74-10.32-1.89-14.07,2.51-4.44,5.22-2.9,13.93-2.78,20.3.26,13.14,2.09,26.05,4.19,39,1,6,1.94,11.92,2.71,17.91.56,4.4.9,9,4.14,12.36,7.16,7.48,21,6.93,30.49,7.56,9.13.6,18.32,1.13,22.59,10.44s1.84,22-4.57,29.78c-6.14,7.49-17.41,9.62-26.42,11.18-5.55,1-11.18,1.77-16.79,2.24-3,.25-6.58.84-9.45-.2-2.33-.84-4.49-2.74-6.55-4.09-8.07-5.34-15.59,7.65-7.57,12.95,3.23,2.13,6.39,4.44,10.13,5.61,4.93,1.53,10.25,1.07,15.3.56a213,213,0,0,0,24.23-3.64c7.58-1.66,15.33-4.21,21.7-8.75,7.05-5,11.54-12.12,14.44-20.23,5.61-15.67,2.16-37.77-13.9-46.18-7.74-4.05-17.24-4.3-25.76-4.84A72.8,72.8,0,0,1,106.82,158c-1-.25-2-.63-3-.87-.41-.1-2.09-1.12-.66-.11,1.18.84.45.72.17-.94-3.87-23.78-8.15-47.89-6.9-72.06l-1,3.78-.91.51-3.79,1c5.1-.36,11.55,1.68,16.87,2.31q8.88,1.06,17.79,1.71c11.09.82,22.87,1.27,33.08,6.16,8.66,4.15,16.28-8.78,7.57-13Z"/></svg>