<svg id="Layer_1" data-name="Layer 1" xmlns="http://www.w3.org/2000/svg" viewBox="0 0 272.42 291.57"><defs><style>.cls-1{fill:#1c1b1a;}</style></defs><path class="cls-1" d="M118.82,78.26c7.55-2,15.21-2,23-1.77s15.6.08,23.42,0c3.76,0,7.53,0,11.28.34,2.4.21,6.1.27,8.29,1.48,3,1.67,3.5,8.82,4.1,12.17,4.65,26.05-3.76,53.27-23.06,71.46-5.93,5.58-12.11,11-19.23,15s-14.87,7.07-21.62,11.9a7.78,7.78,0,0,0-2.69,10.26c3.27,7,13.26,9.1,20.09,10.44,9.59,1.88,19.25,3.49,28.95,4.7,13,1.62,26.15,2.34,39.25,3.36,13.37,1,26.74,2.21,40.17,2.13,9.65-.06,9.67-15.06,0-15-23.82.15-48.1-2.18-71.78-4.62-9.68-1-19.2-2.7-28.78-4.34-3.11-.54-6.23-1.11-9.28-1.94a32.08,32.08,0,0,1-4.29-1.4,15.19,15.19,0,0,0-1.61-.9c.34.09.87,1.36.23,0l-2.69,10.26c7-5,15-8,22.36-12.31s14-10,20.23-15.77a92.3,92.3,0,0,0,25.32-39.48c5-15.06,5.69-30.54,3.17-46.14-1.09-6.73-2.42-15-7.48-20-4.84-4.83-12.28-5.59-18.72-6.22-10.28-1-20.65-.07-30.95-.31-10.66-.25-21.23-.58-31.64,2.18-9.32,2.47-5.37,16.94,4,14.46Z"/></svg>