<svg id="Layer_1" data-name="Layer 1" xmlns="http://www.w3.org/2000/svg" viewBox="0 0 272.42 291.57"><defs><style>.cls-1{fill:#1c1b1a;}</style></defs><path class="cls-1" d="M121.92,80.51c-20.76,10.15-34.78,29.39-43.41,50.32a135.91,135.91,0,0,0-8.73,31.67c-1.65,10.94-3.63,23.43,1.27,33.82,5.45,11.53,18.57,15.45,30.29,16.89,5.93.72,12,.87,18,1.07,7.21.25,14.82.18,21.61-2.54,11.18-4.49,21-14.81,28.65-23.83,8.79-10.3,17.08-21.74,20.35-35.07a72.27,72.27,0,0,0,2-21.87c-.48-6.92-3.55-12.56-7.87-17.84-4.2-5.13-9.21-9.6-13.9-14.27-2.64-2.64-5.1-5.5-7.79-8.06a16.57,16.57,0,0,0-3.54-2.64,15.82,15.82,0,0,0-3-1.12q-3.45-.74-1,.15c-7-6.71-17.57,3.89-10.61,10.61a12.5,12.5,0,0,0,6.48,3.55c5.41,1.11-.14-.87,1.49.52a31.34,31.34,0,0,1,2.12,2.33c3.88,4.14,8,8.06,12.07,12,3.33,3.26,7,6.58,9.17,10.76s1.57,9.5,1.17,14.1c-1.87,21.28-19,40.74-35.4,53.21-8.72,6.64-19.4,5.1-29.72,4.61-8.07-.38-21.31-.26-26.43-7.89-4.34-6.46-2-17.39-1-24.54a134.87,134.87,0,0,1,6.92-27c7.09-19.23,19.59-36.83,38.33-46,8.67-4.24,1.08-17.18-7.57-13Z"/><path class="cls-1" d="M142.1,190.69c4.52,3.43,7.84,8.31,11.91,12.22,1.66,1.6,3.36,3,4.42,5,1.42,2.72,2.11,4.85,4.16,7.26,6.28,7.35,16.85-3.3,10.61-10.61-1.48-1.73-1.91-4.73-3.36-6.72-1.85-2.54-4.2-4.5-6.4-6.71-4.6-4.61-8.54-9.46-13.77-13.42-3.25-2.47-8.36-.49-10.26,2.69-2.29,3.82-.52,7.82,2.69,10.26Z"/></svg>