<svg id="Layer_1" data-name="Layer 1" xmlns="http://www.w3.org/2000/svg" viewBox="0 0 272.42 291.57"><defs><style>.cls-1{fill:#1c1b1a;}</style></defs><path class="cls-1" d="M116.3,105.06c0,7.2-.33,14.44.21,21.63.58,7.88,2.08,15.64,3,23.47.87,7.14,1.82,14.92,2.89,21.53.76,4.72.39,9.8,4,14.14,3.84,4.61,10.93,1.6,12.54-3.31,1.49-4.52,1.3-9.35.94-14-.39-5.29-.36-10.55-.36-15.85,0-12,.2-24,0-36-.06-3.76-1.33-8.28,2.21-10.81s9.66-2,13.86-1.5c5.77.74,11,3.12,16.42,5.19a67.51,67.51,0,0,0,17.8,4.42c4,.41,7.5-3.73,7.5-7.5,0-4.39-3.46-7.09-7.5-7.5-6.6-.66-12.8-3.52-18.91-5.9a57.3,57.3,0,0,0-18.88-4c-11.28-.39-23.57,3.69-27,15.7-1.62,5.71-.52,12.47-.52,18.34v19.84c0,6.86-.21,13.76,0,20.62.17,4.9,1.5,10.23-.06,15l12.53-3.3c1.8,2.16.53-1.84.42-3.17-.24-2.7-.88-5.27-1.36-7.93-1.17-6.52-1.41-13.22-2.33-19.78a273.15,273.15,0,0,1-2.48-39.29c0-9.66-15-9.67-15,0Z"/></svg>