<svg id="Layer_1" data-name="Layer 1" xmlns="http://www.w3.org/2000/svg" viewBox="0 0 272.42 291.57"><defs><style>.cls-1{fill:#1c1b1a;}</style></defs><path class="cls-1" d="M99.69,125.69c0,9.43.53,18.73,2.89,27.89,2,7.92,2.43,16.58,5.8,24,3.18,7,8.61,13.43,15.9,16.35,6.86,2.75,14.27,1.27,21.43,1.14,9.64-.18,9.67-15.18,0-15-5,.09-11.59,1.93-16.28-.11s-7.8-7.9-8.84-12.52c-.64-2.84-.7-5.8-1.24-8.67-.7-3.74-1.89-7.36-2.78-11.06-1.74-7.25-1.87-14.64-1.88-22.06,0-9.65-15-9.66-15,0Z"/><path class="cls-1" d="M105.81,90.54c9.66,0,9.67-15,0-15s-9.66,15,0,15Z"/></svg>