<svg id="Layer_1" data-name="Layer 1" xmlns="http://www.w3.org/2000/svg" viewBox="0 0 272.42 291.57"><defs><style>.cls-1{fill:#1c1b1a;}</style></defs><path class="cls-1" d="M142.57,97.56c-9.07-.8-17.23,6.5-24,11.71-7.72,6-14.16,12.9-18.29,21.82-4,8.72-8.06,19.06-9.13,28.65-1,8.8,2.53,17,5.77,25,2.92,7.22,6.92,13.63,14.2,17.06,8.16,3.86,18.43,4,27.26,3,20-2.21,30-22.84,34.54-40.06a80.26,80.26,0,0,0,1.58-32c-.67-4.23-2.86-7.36-6-10.13-3.95-3.42-6.28-7.84-9.6-11.84-6.17-7.43-16.74,3.23-10.61,10.61,2,2.38,3.44,5.17,5.38,7.61,1.53,1.93,4.86,3.71,6,5.73.81,1.45.31,4.92.36,6.72a91.34,91.34,0,0,1-.05,12.27c-1.25,12-7,29-18.54,34.78-5.16,2.58-12.51,2.09-18.08,1.33s-9-3-11.43-8.05c-2.35-4.89-5.06-11-5.83-16.43-1-7,2.87-14.87,5.12-21.34A44.93,44.93,0,0,1,124,124.37a100,100,0,0,1,9.14-7c2.95-2.11,5.59-5.15,9.45-4.81,9.61.84,9.56-14.16,0-15Z"/></svg>