<svg id="Layer_1" data-name="Layer 1" xmlns="http://www.w3.org/2000/svg" viewBox="0 0 272.42 291.57"><defs><style>.cls-1{fill:#1c1b1a;}</style></defs><path class="cls-1" d="M121.52,77.73q0,45.81,0,91.62c0,15.14-.26,30.3.55,45.43.79,14.85,2.15,29.67,2.21,44.55,0,9.65,15,9.67,15,0-.06-14.88-1.41-29.7-2.21-44.55-.81-15.13-.55-30.29-.55-45.43q0-45.81,0-91.62c0-9.65-15-9.67-15,0Z"/><path class="cls-1" d="M75.7,155.75C94.49,166,116.22,169,137.33,170.05c24.68,1.2,49.53,3.67,74.24,3.23,9.64-.17,9.67-15.17,0-15-23.71.42-47.4-2.18-71.07-3.1-19.43-.75-39.89-2.9-57.22-12.39-8.48-4.63-16.06,8.32-7.58,13Z"/></svg>