<svg id="Layer_1" data-name="Layer 1" xmlns="http://www.w3.org/2000/svg" viewBox="0 0 272.42 291.57"><defs><style>.cls-1{fill:#1c1b1a;}</style></defs><path class="cls-1" d="M89.78,88.66c-3.67,9.48-3.57,20.45-4.63,30.47s-2,20.2-1.25,30.26c.73,10.3,3.75,20.88,6.36,30.85a83.3,83.3,0,0,0,12,25.66c5,7.2,10.51,11.8,19,14.43a57.69,57.69,0,0,0,23.16,2.44c17.77-2,33.18-13.1,36.25-31.44,4-24.17,2.75-48.76,2.72-73.16,0-9.65-15-9.66-15,0,0,18.63,1.63,37.78-.95,56.27-1.06,7.63-.31,16.28-4.72,23-3.46,5.29-9.6,8.29-15.58,9.75a39.46,39.46,0,0,1-17.2-.12c-6.4-1.34-10.92-3.3-14.67-8.75a70.83,70.83,0,0,1-10.54-22.07c-1.08-4.12-1.81-8.33-2.79-12.47s-2.43-8.32-2.9-12.65c-1-9.64-.13-19.66.83-29.28s.87-20.16,4.37-29.2c1.48-3.8-1.62-8.19-5.24-9.22-4.22-1.21-7.77,1.47-9.22,5.23Z"/></svg>