<svg id="Layer_1" data-name="Layer 1" xmlns="http://www.w3.org/2000/svg" viewBox="0 0 272.42 291.57"><defs><style>.cls-1{fill:#1c1b1a;}</style></defs><path class="cls-1" d="M172.84,206.06c-5.56-6.88-13.46-11.07-21.17-15.09-8.91-4.65-17.06-10.4-25.24-16.22-17.26-12.27-34.77-24.19-52.07-36.41a170,170,0,0,1-22.09-19.16c-5.48-5.47-12-10.35-14.59-18-1-2.88-3-7.52-2.12-10.62,1-3.54,6-6.31,9-8.1,7.76-4.65,16.4-7.11,25-9.65C73.7,71.64,78,70,82.42,70S90.65,72,94.25,74.35a56.6,56.6,0,0,1,18.66,19.7c4.19,7.64,3.14,15.57,1.07,23.69a189.91,189.91,0,0,1-10.41,29.74C95.36,166,84,182.87,75.32,201.15c-3.95,8.32-8.85,17.94-9.12,27.33a17.58,17.58,0,0,0,14.61,17.74c8.67,1.55,17.28-2.17,24.78-6.15,8-4.24,15.91-8.94,22.84-14.76,7.64-6.41,14-14.16,20.17-22,5.85-7.43,11.73-15.3,12.68-25,.4-4-3.73-7.5-7.5-7.5-4.39,0-7.1,3.46-7.5,7.5-.65,6.59-7.56,13.56-11.56,18.44-5.86,7.17-11.92,14.36-19.4,19.92-3.66,2.72-32.5,21.68-34.14,12.45-.59-3.3,1.93-8,3-11A142.4,142.4,0,0,1,91,203.25c4.66-9.09,9.92-17.87,14.85-26.82,10-18.2,18.88-37.76,23.44-58.12,2.06-9.22,2.38-18.45-1.31-27.3-3.53-8.49-9.61-15.91-16.39-22.05S96.76,57,87.74,55.44c-10-1.73-20.18,2.21-29.59,5.16C43,65.35,18.37,74.83,20.67,94.55A46.88,46.88,0,0,0,31.54,119.7a209.32,209.32,0,0,0,19,18.88c8.31,7.46,17.57,13.76,26.84,19.95,10.37,6.92,20.53,14.1,30.63,21.39,9.86,7.13,19.64,14.79,30.21,20.85,8.36,4.8,17.76,8.2,24,15.9,2.57,3.17,7.93,2.62,10.61,0,3.15-3.08,2.53-7.48,0-10.61Z"/></svg>