<svg id="Layer_1" data-name="Layer 1" xmlns="http://www.w3.org/2000/svg" viewBox="0 0 272.42 291.57"><defs><style>.cls-1{fill:#1c1b1a;}</style></defs><path class="cls-1" d="M85.23,100c9,14.2,17,29.2,21.27,45.58,4.49,17.25,5.19,35.62,5.22,53.36,0,9.65,15,9.67,15,0,0-19-.94-38.86-5.75-57.35-4.58-17.56-13.08-33.93-22.79-49.16C93,84.26,80,91.78,85.23,100Z"/><path class="cls-1" d="M178.12,98.2c-13.3,10.44-27.32,19.76-38.91,32.19-4.63,5-11.06,8.73-10.72,16.43.34,7.3,5.95,12,11.31,16.16,12.83,9.87,26.45,18.27,40,27,7.54,4.84,15,9.76,22.69,14.41,6.29,3.82,14.76,7,19.6,12.63,6.28,7.35,16.85-3.3,10.61-10.61-4.67-5.46-11.58-8.41-17.66-12-6.67-3.92-13.2-8.06-19.7-12.24-12.71-8.19-25.81-15.88-38.11-24.68-2.71-1.93-5.32-4-7.95-6-1.67-1.29-3.67-3.93-5.47-4.75-1.51-.68.89-1.15-.52.29.74-.76,1.7-1.37,2.49-2.08,2.64-2.36,4.88-5.07,7.33-7.62,10.49-10.94,23.69-19.22,35.57-28.55,3.21-2.52,2.59-8,0-10.6-3.12-3.19-7.44-2.49-10.61,0Z"/></svg>