<svg id="Layer_1" data-name="Layer 1" xmlns="http://www.w3.org/2000/svg" viewBox="0 0 272.42 291.57"><defs><style>.cls-1{fill:#1c1b1a;}</style></defs><path class="cls-1" d="M134,81.23c-8.93,0-17.88.19-26.8-.24-7.85-.39-15.88.22-22.09,5.55s-8.34,13.1-7.21,21.1c1.17,8.19,3.51,16.5,5.66,24.48,4.92,18.27,11.93,35.86,12.77,55,.41,9.51-.5,18.94,1.11,28.39,1.21,7.08,2,14.73,7.36,20.05,5.8,5.7,15.48,6.21,23.06,7.26a232.32,232.32,0,0,0,33.66,2c9.64-.07,9.67-15.07,0-15a239.47,239.47,0,0,1-24.26-.92c-4-.38-8-.89-11.91-1.57-2.7-.46-6.28-.62-8.79-1.82-3.88-1.87-3.64-8.44-4.3-12.18-1.37-7.79-.7-15.62-.85-23.48-.29-16-4.21-31.39-8.94-46.6-2.49-8-4.84-16-6.69-24.14-1.18-5.16-4.46-12.47-3.14-17.78,1.64-6.57,10.22-5.56,15.27-5.31,8.68.44,17.4.22,26.09.21,9.65,0,9.67-15,0-15Z"/></svg>