<svg id="Layer_1" data-name="Layer 1" xmlns="http://www.w3.org/2000/svg" viewBox="0 0 272.42 291.57"><defs><style>.cls-1{fill:#1c1b1a;}</style></defs><path class="cls-1" d="M74.9,120.17c15.43,1.4,30.85,4.14,46.17,6.46a214.86,214.86,0,0,1,22.62,4.49q4.71,1.26,9.41,2.57c1.22.34,9.41,3.63,10.13,3.05,0,0-.94-2.63-1.55-2.34s-1.45,2.61-1.82,3.21c-1.65,2.65-3.37,5.29-5.26,7.77-4.35,5.72-9.5,10.82-14.54,15.92-10.24,10.35-19,21.8-28.73,32.6-5.66,6.29-11.81,12.12-17.44,18.44-2.27,2.55-3.86,4.74-6.72,6.45-2.67,1.59-5.48,3.25-7,6.11a7.6,7.6,0,0,0,4.48,11c18.06,5.28,37.15,3.68,55.64,2.06,9.52-.83,19-2,28.45-3.4,9.08-1.33,18.05-.73,27.19-.67,9.65.07,9.66-14.93,0-15-9.2-.06-18.23-.68-27.38.64-8.77,1.26-17.54,2.45-26.36,3.26-17.66,1.63-36.29,3.69-53.55-1.35l4.48,11c-.32.61-2.24,1.28,0,.2.54-.26,1.07-.62,1.59-.93,1.17-.7,2.32-1.35,3.42-2.16,3.18-2.35,5.5-5.74,8.15-8.65,5.7-6.25,11.85-12.06,17.41-18.43s10.83-13.32,16.55-19.73c5.19-5.82,10.85-11.19,16.23-16.83a127.06,127.06,0,0,0,14.66-18.21c3.28-5,6.91-10.77,5.11-17-2.24-7.8-11.64-9.37-18.38-11.26-7.83-2.2-15.66-4.3-23.67-5.76-9.42-1.72-18.93-2.87-28.4-4.26-10.3-1.53-20.55-3.32-30.92-4.26-9.61-.87-9.55,14.13,0,15Z"/></svg>