<svg id="Layer_1" data-name="Layer 1" xmlns="http://www.w3.org/2000/svg" viewBox="0 0 272.42 291.57"><defs><style>.cls-1{fill:#1c1b1a;}</style></defs><path class="cls-1" d="M110.59,103.88c-8.53-8.84-24.4-4.3-33,2-9.54,7-19.44,17.58-23.61,28.79-4.65,12.46-.49,26,12.23,31.31a49.54,49.54,0,0,0,18.18,3.26c6.68.06,11.18-3.22,15-8.44,8.51-11.72,13.27-27.28,12-41.71-.86-9.52-15.8-9.66-15,0,.92,11.21,4.28,21.7,7.71,32.34a290,290,0,0,1,8.45,34.67c2.25,11.77,4.13,23.61,5.78,35.48.77,5.6,1.06,11.24,1.88,16.83.36,2.43,2.81,8.88,2.54,10.24-1.88,9.39,12.32,13.47,14.46,4,2-8.66,5.18-16.88,8.18-25.21,2.74-7.62,5.13-15.36,7.84-23,5.19-14.58,14.89-28.27,17.17-43.73.59-4-1-8-5.24-9.23-3.53-1-8.64,1.24-9.23,5.24-1.17,8-4.62,15.1-8.11,22.29a204.92,204.92,0,0,0-9,21.45c-2.71,7.63-5.1,15.37-7.85,23-3,8.33-6.22,16.55-8.17,25.21l14.46,4c.86-4.26-.19-8.17-1.3-12.28-1.33-5-1.51-10-2.09-15.08-1.43-12.52-3.5-25-5.74-37.44-2.14-11.82-4.4-23.75-7.9-35.26-3.34-11-7.84-21.94-8.79-33.49h-15c1,11.08-2.17,21.37-7.79,30.85-.9,1.52-2,3.8-3.66,4.61,1.54-.75-.26-.26-1.15-.34s-1.84-.11-2.76-.19c-4.2-.36-10.89-.88-13.18-5.09-4.27-7.85,5.35-17.87,10-23,3.5-3.86,7.4-7.87,12.2-10.08,1.84-.85,8.29-3.09,10-1.32,6.71,7,17.31-3.66,10.6-10.61Z"/></svg>