<svg id="Layer_1" data-name="Layer 1" xmlns="http://www.w3.org/2000/svg" viewBox="0 0 272.42 291.57"><defs><style>.cls-1{fill:#1c1b1a;}</style></defs><path class="cls-1" d="M84.5,131.57c0-2.37,0-5.11.15-7.27,0-.49.41-1.27.26-1.3.35.06-1.83,1.44-1.73,1.21.18-.43,2.34-.22,3.64-.07,2.69.33,5.42,1,8.07,1.55,4.79,1.07,8.94,2.58,12.3,6.32,3.78,4.23,6.37,9.55,9.78,14.08,7.44,9.89,17.9,17.54,30.7,18A29.51,29.51,0,0,0,166,158.77c5.13-3.75,8-9.47,12.66-13.65,7.22-6.43-3.42-17-10.61-10.6-4.39,3.91-7.15,10.59-12.57,13.18-5.89,2.81-12.56,1.17-17.89-2.08-10.18-6.21-13.33-19-22.14-26.55a36.2,36.2,0,0,0-15.28-7.56c-5.27-1.3-11.2-2.76-16.66-2.47-12.61.67-14,12.33-14,22.53.08,9.64,15.08,9.67,15,0Z"/></svg>