<svg id="Layer_1" data-name="Layer 1" xmlns="http://www.w3.org/2000/svg" viewBox="0 0 272.42 291.57"><defs><style>.cls-1{fill:#1c1b1a;}</style></defs><path class="cls-1" d="M95.21,92.84c4.06,4.45,8.9,7.94,13.65,11.6,4.2,3.22,7.84,6.06,9.54,11.15,1.81,5.42,4.77,10.32,6.64,15.69,2.1,6,1.15,12.88,1,19.14-.26,12.36-5.74,24.51-9.62,36.09-1.83,5.45-5.16,8.6-8.3,13.2-3.62,5.3-4.53,12-6.59,17.91-3.17,9.14,11.32,13.07,14.46,4,1.18-3.39,1.89-6.93,3.09-10.31,1-2.76,2.53-4.46,4.39-6.66,4.24-5,6.4-10.95,8.38-17.17,4.33-13.65,8.94-26.1,9.23-40.6.13-6.88.55-13.77-1.85-20.36-2.16-5.91-5-11.51-7.21-17.42-4.6-12.43-17.72-17.55-26.21-26.85-6.52-7.15-17.11,3.48-10.61,10.6Z"/></svg>