<svg id="Layer_1" data-name="Layer 1" xmlns="http://www.w3.org/2000/svg" viewBox="0 0 272.42 291.57"><defs><style>.cls-1{fill:#1c1b1a;}</style></defs><path class="cls-1" d="M98.78,164.59a134,134,0,0,1,9.36-39.1c2.36-5.72,4.31-11.67,7.27-17.13,2.87-5.3,6.9-9.66,9-15.4l-9.23,5.24c-1.59-.67.47,1.54.81,2,1,1.59,2.15,3.14,3.21,4.72,2,3,3.94,6.06,5.82,9.14q6.09,9.94,12.07,20c3.62,6.06,6.66,12.5,10.92,18.14,3.84,5.07,6.53,11.66,11.36,15.82,7.28,6.28,17.93-4.29,10.61-10.6-2.5-2.15-3.51-5.11-5.27-7.82-2-3-4.49-5.69-6.46-8.75-4.34-6.74-8-14-12.16-20.88S138,106.32,133.63,99.66c-4-6.15-7.45-13-14.48-15.92-3.94-1.65-8,1.83-9.22,5.23-1,2.77-3.24,5-4.86,7.45a60.78,60.78,0,0,0-4.47,8.1c-2.81,6.07-5.06,12.41-7.6,18.6-5.43,13.24-7.88,27.25-9.22,41.47-.91,9.6,14.1,9.54,15,0Z"/></svg>