<svg id="Layer_1" data-name="Layer 1" xmlns="http://www.w3.org/2000/svg" viewBox="0 0 272.42 291.57"><defs><style>.cls-1{fill:#1c1b1a;}</style></defs><path class="cls-1" d="M86.56,220.9c0-14.8,4.11-29.05,8.29-43.14q6.39-21.56,14.58-42.48c5.43-14,12-27.45,17.28-41.47a188.13,188.13,0,0,0,6-20.65c.69-2.78,1.34-5.59,2.3-8.28.29-.81.64-1.57,1-2.36.22-.56,1.49-1.84.46-1.28l-11-4.48C129,69,132,81.34,136.33,93.4c4.29,11.87,8.36,23.8,12.57,35.7,4.11,11.61,7.88,23.15,11.2,35a107.9,107.9,0,0,0,6.26,16.7c2.41,5.16,5.36,10.51,6.09,16.24.51,4,3.08,7.5,7.5,7.5,3.66,0,8-3.45,7.5-7.5-1.53-12.07-8.31-21.83-11.82-33.27-3.8-12.38-7.27-24.69-11.64-36.9-4.24-11.88-8.23-23.83-12.55-35.69-4.6-12.65-7.8-25.53-11.57-38.42a7.6,7.6,0,0,0-11-4.48c-4.7,2.54-6.86,8.28-8.47,13.07-2.35,7-3.51,14.38-5.7,21.44-4.79,15.45-12.42,30-18.34,45s-11.34,30.41-16,46c-4.55,15.35-8.8,31-8.82,47.12,0,9.65,15,9.67,15,0Z"/><path class="cls-1" d="M106.41,149.25c7.72,1.09,14.84,2.08,22.68,2.09q12.58,0,25.18,0c9.65,0,9.67-15,0-15H131c-3.72,0-7.56.28-11.27,0-3.14-.25-6.22-1.1-9.34-1.54-4-.57-8,1-9.22,5.24-1,3.5,1.23,8.66,5.23,9.22Z"/></svg>