<svg id="Layer_1" data-name="Layer 1" xmlns="http://www.w3.org/2000/svg" viewBox="0 0 272.42 291.57"><defs><style>.cls-1{fill:#1c1b1a;}</style></defs><path class="cls-1" d="M111.08,257.75c10,9.31,27.66,8.08,40.15,7.78,7.88-.19,15.81.2,23.42-2.3a57.76,57.76,0,0,0,18.9-10.94c11.89-10,12.09-29.07,8-42.84-4-13.49-14.2-26.21-14.59-40.61a13.23,13.23,0,0,1,.84-4.94s.57-.67.11-.32c.36-.27,2.43-1.27,1.63-1,3.9-1.51,8-1.21,12.49-1.14,9.16.14,26.18,2.32,29-9.55,3.81-15.84-19-21.32-29.05-25.71a30.12,30.12,0,0,1-15.43-14.47c-3.81-7.5-2-15.31-1.71-23.36.34-8.48-1.38-17-8.19-22.59-5.57-4.62-12.47-6.22-18.83-9.36-4.12-2-7.92-4.68-12.34-6.11C140.63,48.74,135,48.48,129.82,48,119,47,108,46.84,97.12,46.84c-9.65,0-9.67,15,0,15,8.67,0,17.35.07,26,.62C130.9,63,139,63.1,145.9,67c5.37,3,11,4.92,16.55,7.52s7.46,5.22,7.53,11.3c.08,8-1.64,15.67,0,23.59,1.37,6.83,5.18,13.27,9.57,18.58A42.87,42.87,0,0,0,196,139.82c5.92,2.54,13.53,4,18.61,8.1.62.5,1.08,1.3,1.7,1.75.08.06.38.88.49.89-1.72-.19,1.56-4.44,1.43-4.59s-4.46.58-5.2.6c-4.31.16-8.62-.1-12.93-.11-8.59,0-18.31.85-24,8.16-7.4,9.57-3.61,23.74.49,33.87,4.94,12.19,12.42,23.72,12.18,37.3-.14,7.73-1.7,13.08-8.2,17.62-5.31,3.71-10.93,6.37-17.45,6.91a192.27,192.27,0,0,1-26.62.29c-4.21-.25-12.08-.88-14.84-3.46-7-6.59-17.67,4-10.6,10.6Z"/></svg>