<svg id="Layer_1" data-name="Layer 1" xmlns="http://www.w3.org/2000/svg" viewBox="0 0 272.42 291.57"><defs><style>.cls-1{fill:#1c1b1a;}</style></defs><path class="cls-1" d="M115.75,85.55C111.24,98.89,106,112,100.83,125c-5,12.56-10.55,25-14.47,38s-6.4,26-9.27,39.11c-1.24,5.61-2.43,11.48-1.88,17.25.65,6.79,3.68,12.74,7.75,18.12,6.2,8.19,16.77,11.2,26.78,10.15,12-1.26,20.82-9.36,29.51-17s17.42-14.92,25-23.46c5.84-6.6,11.56-16.73,3.71-24.26-4.59-4.39-12.56-5.7-18.52-7.11-7.08-1.66-14.27-2.86-21.37-4.43-15.21-3.35-30.29-8-45.25-12.26-9.3-2.67-13.27,11.8-4,14.46,11.22,3.23,22.52,6.18,33.77,9.33,10.84,3,21.91,4.79,32.85,7.37,2.35.55,4.68,1.14,7,1.82,1.42.42,2.85,1.05,4.28,1.37s.88.74,1,.27c0-.09-1.21-2-.8-2s-.31.84-.4.93c-1,1-1.83,2.76-2.83,3.89-6.26,7.08-13.48,13.47-20.58,19.66-6.52,5.66-14.1,14.55-23,16.27a21.43,21.43,0,0,1-9.39-.4c-4.16-1.11-6.08-3.51-8.19-7.2-5.1-8.89-.67-19.95,1.26-29.24a289.14,289.14,0,0,1,8.46-33.06c8.31-24.73,19.63-48.39,28-73.14,3.1-9.16-11.39-13.09-14.47-4Z"/></svg>