<svg id="Layer_1" data-name="Layer 1" xmlns="http://www.w3.org/2000/svg" viewBox="0 0 272.42 291.57"><defs><style>.cls-1{fill:#1c1b1a;}</style></defs><path class="cls-1" d="M154.73,68.48c-8.94,9.34-8.69,22.41-16.32,32.42-8.58,11.25-15,23.37-21.9,35.68-3.5,6.26-7.55,12.07-11.42,18.08s-7.3,12.37-11,18.51c-3.09,5.09-6.15,9.86-8.49,15.36-2.14,5-4,10.77-7.89,14.78-6.72,6.93,3.87,17.55,10.6,10.6,8-8.3,10.75-20.44,16.84-30.1,3.83-6.07,7.24-12.4,11-18.52s8-11.86,11.59-18.06c7-12,12.8-24.66,21.3-35.73,3.8-4.94,7.29-9.65,9.21-15.67s2.61-12,7.12-16.74c6.67-7-3.92-17.6-10.61-10.61Z"/><path class="cls-1" d="M88.49,128.06c9.66,0,9.67-15,0-15s-9.66,15,0,15Z"/><path class="cls-1" d="M149,180.34c9.65,0,9.67-15,0-15s-9.67,15,0,15Z"/></svg>