<svg id="Layer_1" data-name="Layer 1" xmlns="http://www.w3.org/2000/svg" viewBox="0 0 272.42 291.57"><defs><style>.cls-1{fill:#1c1b1a;}</style></defs><path class="cls-1" d="M94.65,66.81c-.07,24.26,2.37,48.45,4.27,72.61.82,10.44,3,21.22,2.73,31.7-.2,7.58-1.46,16.1,4.37,22.06,6.76,6.92,17.37-3.69,10.61-10.6-.57-.59-.3-4.88-.24-6.41a76.72,76.72,0,0,0,.07-9.59c-.94-11-2.14-22-3-33.05-1.7-22.22-3.9-44.41-3.83-66.72,0-9.65-15-9.67-15,0Z"/><path class="cls-1" d="M104.19,85c3.23,3.65,7.15,5.39,11.44,7.46,4.69,2.27,8.85,5.43,13.33,8.06,7,4.09,16.44,6.83,21.06,13.91,5,7.62-4.46,17.64-10.09,22.09-7.47,5.92-16.07,10.09-23.06,16.66a7.34,7.34,0,0,0-1.93,7.29c3.19,9.32,13.45,12.29,20.93,17.37a31,31,0,0,1,10.66,11.66c2.3,4.14,4.91,9.15,1.71,13.44-2.73,3.66-7.14,6.74-11.82,6.75-3.91,0-8.2-1.9-11.85-3.19-4.6-1.62-16.14-5.27-16.75-11.23-.42-4-3.15-7.5-7.5-7.5-3.74,0-7.92,3.44-7.5,7.5,1.38,13.36,13,20,24.41,24.45,12.14,4.78,24.54,7.63,35.86-.86,6.15-4.61,11.1-10.89,11.68-18.79.54-7.43-3.14-14.62-6.83-20.8-4.05-6.77-9.33-10.88-15.78-15.25a76.45,76.45,0,0,0-7.1-4.15c-1.17-.62-5.29-2.3-5.66-3.38l-1.93,7.29c7.82-7.34,18-11.61,25.79-19,8.25-7.82,15.48-20,12.43-31.73-2.77-10.66-12.86-17-22-21.68-5-2.57-9.68-5.44-14.43-8.43-4.59-2.89-10.82-4.44-14.45-8.53-6.42-7.24-17,3.4-10.6,10.6Z"/></svg>