<svg id="Layer_1" data-name="Layer 1" xmlns="http://www.w3.org/2000/svg" viewBox="0 0 272.42 291.57"><defs><style>.cls-1{fill:#1c1b1a;}</style></defs><path class="cls-1" d="M108.47,136.5c10.72,8.29,21.67,16.33,31.84,25.3A124.59,124.59,0,0,1,154,175.43c4.09,4.94,7.78,10.16,12.3,14.73,6.8,6.87,17.4-3.74,10.6-10.61-4.32-4.37-7.88-9.33-11.76-14.08a125.8,125.8,0,0,0-14.18-14.28c-10.17-9-21.12-17-31.84-25.3-3.23-2.49-7.45-3.08-10.61,0-2.61,2.56-3.2,8.14,0,10.61Z"/><path class="cls-1" d="M158.2,126c-2,3-3.47,6.46-5.86,9.21-2.08,2.4-4.5,4.48-6.59,6.87-5.58,6.41-10.59,13.4-15.54,20.3-4.63,6.47-9.22,13-13.65,19.59-2,3.06-4.07,6.15-6.36,9-1,1.29-2.23,2.48-3.15,3.86-1.06,1.61-1.51,3.85-2.7,5.3-6.13,7.37,4.43,18,10.6,10.6,2.4-2.88,3.53-6.27,5.85-9.15,2.56-3.19,4.94-6.47,7.24-9.86,4.6-6.8,9.25-13.56,14-20.25s9.7-13.8,15.35-20c2.58-2.83,5.42-5.33,7.75-8.38s3.89-6.42,6-9.55c5.39-8-7.6-15.56-13-7.57Z"/></svg>