<svg id="Layer_1" data-name="Layer 1" xmlns="http://www.w3.org/2000/svg" viewBox="0 0 272.42 291.57"><defs><style>.cls-1{fill:#1c1b1a;}</style></defs><path class="cls-1" d="M95.33,48.65c-1.24,13.66-1.88,27.15-.89,40.89,1,14.55,4.85,28.73,6.21,43.24,1.31,13.83,1.57,27.79,1.55,41.68q0,10.32,0,20.66c0,5.17,1.79,12.53-.42,17.35l14,3.79c.3-9.47-.32-18.95.48-28.4.77-9.19,2.8-18.28,4.26-27.38.76-4.73,1.75-9.37,2.81-14,.29-1.25.73-2.65.91-3.91.19-1.41,1.16-.91-.34-.82,3.47-.22,8.72,6.26,11,8.68,4.16,4.31,7.72,8.17,9.51,14,2.29,7.5,4,15.87,3.49,23.73a39.28,39.28,0,0,1-1.68,8.86c-1.11,3.62-1.38,4-4.92,5.15-7,2.28-14.76,1.37-22,1.33-9.65-.05-9.66,14.95,0,15,14.14.08,33.79,1.64,40.18-14.17,5.78-14.32,3.82-32.13-1.45-46.34-2.44-6.6-6.32-11.74-11.17-16.76-4.1-4.25-8.28-8.81-13.49-11.74-6-3.38-13.38-4-18.81.92-5.61,5.08-6.53,14.47-7.79,21.52-1.87,10.4-3.84,20.89-5.1,31.38-1.32,11-.6,21.95-.95,33-.22,7.1,10.82,10.67,14,3.78,2.87-6.26,2.82-12.37,2.56-19.12s-.1-13.27-.1-19.89c0-14.82-.17-29.61-1.23-44.4s-4.9-29.35-6.29-44.17c-1.37-14.67-.68-29.2.65-43.81.88-9.61-14.13-9.55-15,0Z"/></svg>