<svg id="Layer_1" data-name="Layer 1" xmlns="http://www.w3.org/2000/svg" viewBox="0 0 272.42 291.57"><defs><style>.cls-1{fill:#1c1b1a;}</style></defs><path class="cls-1" d="M101,120.39c-6.86,5.49-9.49,16.45-12.37,24.35-3.36,9.21-6.76,18.42-8.74,28-1.35,6.55-3.76,14.72-3.26,21.41.6,8.2,7.64,12.52,15.4,12.33s14.52-3.79,20.61-8.17a102.4,102.4,0,0,0,20.27-19.12c6-7.46,11.46-15.4,17-23.19,2.46-3.46,5.07-6.9,6.86-10.77,1.27-2.74,2.1-6,4.56-7.9l-12.54-3.31c1.7,8.21,0,18-1.44,26.2-1.32,7.71-2.87,15.48-4.63,23.1-1.49,6.47-2.82,14.11,4,18.12,5.73,3.36,12.6.52,17.7-2.66,26.74-16.65,26.47-47.88,26.43-75.88,0-9.65-15-9.67-15,0,0,20.79,2.4,47.7-16.77,61.44-1.63,1.17-3.94,2-5.41,3.26-.37.33-.88.45-.86.36.2-.74,4.11,3.27,3.45,3.77.67-.51,1.23-5.65,1.42-6.57.7-3.3,1.22-6.65,1.91-9.95,3-14.35,6.68-30.55,3.64-45.17-1.27-6.14-8.47-6.45-12.53-3.31-4.56,3.52-5.71,9.34-8.53,14.06-4.08,6.81-9.25,13-13.85,19.41-8,11.23-18,24.7-31.33,30.13-1.56.64-3.44.59-5,1.15-2.56.92-.84-1.13-1.07.81-.27,2.39.68-.76.67-.75,2-5.82,2.09-12.42,3.53-18.39a204,204,0,0,1,7.3-22.74c2.17-5.91,4-15.36,9.15-19.45,3.19-2.55,2.61-7.94,0-10.61-3.09-3.16-7.46-2.51-10.61,0Z"/></svg>