<svg id="Layer_1" data-name="Layer 1" xmlns="http://www.w3.org/2000/svg" viewBox="0 0 272.42 291.57"><defs><style>.cls-1{fill:#1c1b1a;}</style></defs><path class="cls-1" d="M130.71,105.81c-9.48.1-18.9.78-27.54,5-6.41,3.15-13.45,4.81-17,11.53a40.55,40.55,0,0,0-4.36,20.84c.55,9,6,13.73,14.12,16.63,7.79,2.78,17.23,4.52,25.47,3.28,7.55-1.13,13.24-5.65,19.2-10.07,6.41-4.75,12.28-9.61,16.09-16.78,3.09-5.79,6.34-12.76,4.59-19.44-1.31-5-9-7.89-12.54-3.31-9.77,12.58-9.61,28.8-11.7,43.92-2.7,19.56-4.59,39.19-6.66,58.82-.5,4.76-1.09,9.52-1.71,14.27-.51,3.92-.47,8.32-2.44,11.83-.42.75-1.77.67-.72.66a7.12,7.12,0,0,1-2.68-1.18,30,30,0,0,1-6.76-5.31c-5.57-5.65-7.9-11.42-3.53-18.42a44.34,44.34,0,0,1,8.33-9.34c3.42-3.05,7.13-4.11,10.92-6.44,8.22-5.05.69-18-7.57-13-3.25,2-6.71,3-9.82,5.41a65,65,0,0,0-9.13,8.34c-5.34,6-10.24,13.43-10.41,21.72-.27,13.55,12.38,27.14,24.45,31.86,6.83,2.68,13.84.65,18.51-5,5.24-6.34,5.09-15.29,6.1-23.07,2.38-18.53,3.86-37.17,6.11-55.72,1.1-9.09,2.52-18.14,3.5-27.25.76-7,1.32-15.75,5.82-21.54l-12.54-3.3c.4,1.53-2.33,6.58-3.5,8.69-2.61,4.71-6.65,7.89-10.92,11-3.63,2.7-7.41,6.23-11.84,7.49-4.93,1.41-11,0-15.78-1.23-1.85-.46-6.17-1.05-7.51-2.57-.8-.91-.5-2.43-.48-3.55.07-3.36.45-9.3,2.93-11.82a39.84,39.84,0,0,1,3.75-1.4c3-1.17,5.57-3,8.52-4.22,5.93-2.39,12.5-2.39,18.78-2.46,9.65-.1,9.67-15.1,0-15Z"/></svg>