<svg id="Layer_1" data-name="Layer 1" xmlns="http://www.w3.org/2000/svg" viewBox="0 0 272.42 291.57"><defs><style>.cls-1{fill:#1c1b1a;}</style></defs><path class="cls-1" d="M101.31,127.41c-6.48,10.74-1.52,26.81,2.35,37.55,2.46,6.84,4.8,13.78,7.66,20.46,2.49,5.78,5.5,11.12,11.56,13.68,13.46,5.69,23.73-4.68,29.87-15.57,7.19-12.76,9.2-26.86,9.31-41.33.07-9.65-14.93-9.66-15,0s-.73,19.72-4.7,28.7c-1.69,3.81-7.8,18-14,14.32-3-1.78-4.2-7.57-5.32-10.61-1.87-5.12-3.8-10.24-5.6-15.39a69.88,69.88,0,0,1-3.61-13.63c-.42-3.09-1.28-7.85.38-10.61,5-8.29-8-15.84-13-7.57Z"/></svg>