<svg id="Layer_1" data-name="Layer 1" xmlns="http://www.w3.org/2000/svg" viewBox="0 0 272.42 291.57"><defs><style>.cls-1{fill:#1c1b1a;}</style></defs><path class="cls-1" d="M111.33,96.36c-5.55,6.56-4,14.44-4,22.46,0,9.06,0,18.13,0,27.19s0,18.22,0,27.34c0,8.72-.92,17.82-.1,26.49,1.55,16.48,22.2,14.23,34.06,15.35,8.91.84,17.71,1.93,26.67,2A199,199,0,0,1,193.52,219c4,.55,8-1,9.22-5.24,1-3.49-1.22-8.68-5.24-9.22-7.35-1-14.45-2.21-21.9-2.28-7.71-.07-15.34-.07-23-.89s-15.1-1.49-22.66-2.17c-2.05-.18-5.48-1.16-7.46-.68-.91.22-1.19-.46-.6,0,.42.82.53.87.34.14a6.78,6.78,0,0,1-.13-2.25c-.36-15.42.22-31,.22-46.41q0-11.19,0-22.37c0-3.88,0-7.76,0-11.64,0-1.22-.7-8.57-.39-8.94,6.2-7.33-4.36-18-10.6-10.61Z"/></svg>