<svg id="Layer_1" data-name="Layer 1" xmlns="http://www.w3.org/2000/svg" viewBox="0 0 272.42 291.57"><defs><style>.cls-1{fill:#1c1b1a;}</style></defs><path class="cls-1" d="M72.83,121.37c4.49,4.36,5.69,11.47,8.1,17.09a209,209,0,0,0,10.56,20.85c3.82,6.76,7.62,13.59,11.71,20.19s8.94,12.64,12.49,19.51c2.6,5,4.25,11.15,9.12,14.57,5.4,3.79,11.66,0,14.68-4.86,2.5-4.06,3.58-9,4.52-13.6,1.18-5.78,2.71-11.46,4.11-17.19C150.3,169,152.39,160,154.26,151c.83-4,1.47-8.26,3-12.08,1.66-4.13,3.48-7.35,4.05-11.86.52-4-3.81-7.5-7.5-7.5-4.47,0-7,3.46-7.5,7.5-.39,3.12-3.07,6.45-4.05,9.55-1.25,4-2,8.08-2.81,12.13-1.79,8.43-3.75,16.83-5.79,25.2-1.44,5.89-3,11.73-4.2,17.67a49,49,0,0,1-1.87,7.29c.36-1-1,2.73-.81,1.86-.3,1.74,1.39-.43.59-.31l7.29,1.92c-2.51-2.27-3.54-5.7-4.94-8.72a84.73,84.73,0,0,0-6.65-11.34c-5.31-8-10.22-16-15-24.33s-9.63-16.65-13.44-25.46c-3.31-7.66-5-15.75-11.15-21.77-6.92-6.73-17.54,3.86-10.61,10.61Z"/></svg>