<svg id="Layer_1" data-name="Layer 1" xmlns="http://www.w3.org/2000/svg" viewBox="0 0 272.42 291.57"><defs><style>.cls-1{fill:#1c1b1a;}</style></defs><path class="cls-1" d="M125.05,94.53c-11.31-9.06-29.36-3.9-38.95,5.19-5.83,5.52-10,12.7-13.93,19.61a161.57,161.57,0,0,0-11.7,24.43,86.19,86.19,0,0,0-5.1,27c-.15,3.93-.47,7.82.85,11.6,1.39,4,4.15,7.37,7,10.37,11.15,11.61,23.48,21.88,38.31,28.43,7.94,3.5,16.54,6.73,25.28,7.31,9.5.63,14.47-4.89,20.22-11.4,6.37-7.21-4.2-17.86-10.61-10.61-1.75,2-3.89,5.92-6.43,6.9-2.14.83-5.19-.17-7.32-.67a83.71,83.71,0,0,1-20.28-7.78,88.61,88.61,0,0,1-20-14.36c-4.73-4.57-12.5-9.61-12.22-16.74.35-8.78,1.44-16.85,4.42-25.17s7.31-16.31,11.82-24c3.55-6.06,7.23-12.74,13.26-16.69a17,17,0,0,1,7.74-2.73,24.94,24.94,0,0,1,5.11,0c1,.11,3.62,1.39,1.88,0,3.18,2.56,7.48,3.06,10.61,0,2.65-2.59,3.15-8.08,0-10.6Z"/></svg>