<svg id="Layer_1" data-name="Layer 1" xmlns="http://www.w3.org/2000/svg" viewBox="0 0 272.42 291.57"><defs><style>.cls-1{fill:#1c1b1a;}</style></defs><path class="cls-1" d="M167.34,69c-25.26-.17-54.93,3.61-63.83,31.52A34.36,34.36,0,0,0,103,119.8c2,7.21,6.76,12.74,11.28,18.5,10,12.76,20.62,25.06,31,37.55,5.18,6.23,10.31,12.51,15.25,18.93,2.37,3.09,4.74,6.19,7,9.35a47.51,47.51,0,0,1,2.83,4.25c1.14,2,.74,3.61,2.2,1.35s.17-1.13-1.2-.68c-1.13.36-2.31.57-3.46.86-3.45.84-6.85,1.85-10.24,2.87-7.66,2.29-15.31,4.66-23.23,5.87-5.08.78-8.33,1-11-3.89s-5-11.53-3.49-17c3.09-11.26,16.2-20.51,25-27.17,6.73-5.06,14.1-9,21-13.73,6-4.11,10.84-10.52,14.1-17,3.85-7.62,4.79-16.18,7.36-24.23a82.82,82.82,0,0,0,3.89-26.25c-.11-9.65-15.11-9.68-15,0a71.76,71.76,0,0,1-3.62,23.07c-2.32,7.28-2.81,15.41-6.82,22-3.81,6.31-7.78,9.54-14,13.33a198.84,198.84,0,0,0-19.47,13.65c-10.51,8.27-22,17.95-26.53,31-4.11,11.87,1.14,30.64,11.51,38.05,11.23,8,29,1.28,40.76-2.22,6.32-1.89,13.05-3.15,19.22-5.44s10.46-7.74,9-14.68c-1.53-7.34-7.42-13.68-11.83-19.48-5.1-6.72-10.37-13.31-15.73-19.83-10.9-13.26-22.16-26.22-32.8-39.69-4.72-6-9.84-11.59-9.13-19.69a26.09,26.09,0,0,1,10-17.63C137.85,83.5,154.32,84,167.34,84c9.65.07,9.66-14.93,0-15Z"/><path class="cls-1" d="M176.67,73c-11.48-3.21-23.25-2.18-35-2.1-9.65.06-9.67,15.06,0,15,10.37-.07,20.9-1.27,31,1.57C182,90,186,75.57,176.67,73Z"/></svg>