<svg id="Layer_1" data-name="Layer 1" xmlns="http://www.w3.org/2000/svg" viewBox="0 0 272.42 291.57"><defs><style>.cls-1{fill:#1c1b1a;}</style></defs><path class="cls-1" d="M66,98.71a43.65,43.65,0,0,0,7.73,14c3.43,4.15,7.55,7.64,10.73,12,7.81,10.7,15.66,21.31,23.59,31.93,4.19,5.6,8.51,11.13,12.51,16.87,3.52,5,6.18,10.57,9.17,15.92a80.93,80.93,0,0,0,10.3,14.41c3.85,4.34,6.35,9.52,10.45,13.71,6.75,6.92,17.35-3.69,10.6-10.6-3.68-3.78-5.94-8.5-9.37-12.5a79.85,79.85,0,0,1-9.83-14.06c-6.13-11.16-13.25-21.12-20.88-31.32-7.44-10-15.11-19.67-22.17-29.9-5.72-8.3-15-14.78-18.37-24.48-3.11-9.08-17.6-5.18-14.46,4Z"/></svg>