<svg id="Layer_1" data-name="Layer 1" xmlns="http://www.w3.org/2000/svg" viewBox="0 0 272.42 291.57"><defs><style>.cls-1{fill:#1c1b1a;}</style></defs><path class="cls-1" d="M143.82,78.21A35.84,35.84,0,0,0,127,85.1c-5.09,3.59-10.59,6.51-15.53,10.29a100.38,100.38,0,0,0-12.81,12C94.5,112,89.57,116.51,86.63,122c-5.39,10.09-6.38,23.87-5,35.09A63.15,63.15,0,0,0,96,189.63c14.95,17.87,45.27,25,66.15,14.2,10.7-5.55,18.9-15.42,23.35-26.5A58.41,58.41,0,0,0,189.78,159c.42-7.06,1.27-14,1.78-21.08.91-12.91-.1-28.05-8.73-38.36-4.59-5.49-10.84-8.84-17-12.28-6.73-3.76-12.29-8.2-20.2-9.08-4-.46-7.5,3.77-7.5,7.5,0,4.43,3.46,7,7.5,7.5s7.87,4.29,11.16,6.22c4.55,2.65,9.57,4.77,13.38,8.5,6.51,6.4,6.46,16.47,6.49,25,0,5.23-.84,10.27-1.43,15.45-.61,5.42-.06,10.87-1.34,16.2-2.12,8.84-6.45,17-13.65,22.72-13.82,11-37.17,7.55-49.74-4.1C97.29,170.91,93.21,151,98,133.89c1.44-5.16,4.63-8.45,8.12-12.34a146.08,146.08,0,0,1,11.49-11.85c4.12-3.66,8.9-6,13.43-9.1,3.83-2.59,8-6.78,12.81-7.39,4-.52,7.5-3.08,7.5-7.5,0-3.65-3.46-8-7.5-7.5Z"/></svg>