<svg id="Layer_1" data-name="Layer 1" xmlns="http://www.w3.org/2000/svg" viewBox="0 0 272.42 291.57"><defs><style>.cls-1{fill:#1c1b1a;}</style></defs><path class="cls-1" d="M132.39,97.84c-3,7.47-4.21,15.42-6.16,23.2-2.16,8.58-4.79,17-6.93,25.61-4.08,16.35-7.63,33.48-7.35,50.4.16,9.65,15.16,9.67,15,0-.27-16.24,3.24-32.58,7.28-48.25,2.05-8,4.46-15.81,6.46-23.77,2-7.79,3.15-15.73,6.17-23.21,1.53-3.78-1.67-8.2-5.24-9.22-4.27-1.22-7.72,1.5-9.23,5.24Z"/><path class="cls-1" d="M156,107.06c17.2,3.76,34.45,7.35,51.82,10.27,2.64.45,5.85.45,8.3,1.53.82.36-1.63-.17.1,1-.62-.42.68-1.63-.24-.17.48-.75-.4.25-.38.23a7.92,7.92,0,0,1-1.56,1.25,25.74,25.74,0,0,1-4.85,2.47c-8.73,3.5-18.49,5.35-27.53,7.9-5.9,1.66-13.58,4.39-19.79,3.16-5.79-1.14-9.53-6.55-16-6.14-6,.39-8.86,6-6.47,11.29,6.13,13.62,16.18,24.93,24.81,37s17.36,23.57,24,36.84c4.32,8.63,17.27,1,12.95-7.57-6.64-13.27-15.39-24.83-24-36.84s-18.68-23.36-24.82-37l-6.48,11.28c1-.06,3.2,1.44,4.58,2.23a29.72,29.72,0,0,0,8,3.47c6.63,1.48,14.2,0,20.69-1.54,9.59-2.23,19.27-5,28.71-7.82,8.25-2.46,18.27-6.15,22-14.63A15.69,15.69,0,0,0,229,111.5c-3.16-5.73-8.69-7.28-14.69-8.21C196.1,100.47,178,96.54,160,92.6c-9.4-2.06-13.42,12.4-4,14.46Z"/></svg>