<svg id="Layer_1" data-name="Layer 1" xmlns="http://www.w3.org/2000/svg" viewBox="0 0 272.42 291.57"><defs><style>.cls-1{fill:#1c1b1a;}</style></defs><path class="cls-1" d="M122.27,53v82.55c0,9.65,15,9.67,15,0V53c0-9.65-15-9.66-15,0Z"/><path class="cls-1" d="M74.74,112.74H149c9.65,0,9.67-15,0-15H74.74c-9.65,0-9.67,15,0,15Z"/><path class="cls-1" d="M132.72,72.42C115.33,89.62,106,113,88.7,130.21c-6.85,6.82,3.76,17.43,10.6,10.6,17.31-17.25,26.68-40.62,44-57.78,6.88-6.8-3.73-17.4-10.61-10.61Z"/><path class="cls-1" d="M90.22,76c14.21,8.41,23.11,23.58,32.45,36.69,11,15.42,24.11,28.7,37.57,41.93,6.89,6.77,17.51-3.82,10.61-10.6-13.65-13.42-26.78-26.85-37.8-42.55C123.09,87.23,113,72,97.79,63c-8.33-4.93-15.88,8-7.57,13Z"/></svg>