<svg id="Layer_1" data-name="Layer 1" xmlns="http://www.w3.org/2000/svg" viewBox="0 0 272.42 291.57"><defs><style>.cls-1{fill:#1c1b1a;}</style></defs><path class="cls-1" d="M75,77.73c-.19,28.37,8.72,55.77,12.59,83.7,4,28.75,6.61,57.85,6.67,86.9,0,9.65,15,9.66,15,0-.06-29.1-2.82-58.15-6.68-87-1.89-14.15-4.27-28.22-7.41-42.15-3.1-13.73-5.26-27.37-5.17-41.48.07-9.66-14.93-9.67-15,0Z"/><path class="cls-1" d="M138.29,113.5V245.57c0,9.66,15,9.67,15,0V113.5c0-9.65-15-9.67-15,0Z"/><path class="cls-1" d="M68.75,173.28c27.56,0,55.13-.5,82.64-2.26a213,213,0,0,0,37.18-5.39c12-2.95,24.47-9.85,37-8.86,9.62.75,9.57-14.25,0-15-12.78-1-24.59,5-36.65,8.27a189.24,189.24,0,0,1-37.55,6c-27.51,1.76-55.08,2.25-82.64,2.26-9.66,0-9.67,15,0,15Z"/><path class="cls-1" d="M60.49,239.32c24.65,0,49.3-.09,73.95,0,11.62,0,23.28.39,34.88-.36s22.73-4.18,34.25-5.14c9.55-.79,9.64-15.8,0-15-11.23.94-22,4.3-33.29,5.08-11.92.83-23.9.46-35.84.42-24.65-.08-49.3,0-73.95,0-9.65,0-9.67,15,0,15Z"/></svg>