<svg id="Layer_1" data-name="Layer 1" xmlns="http://www.w3.org/2000/svg" viewBox="0 0 272.42 291.57"><defs><style>.cls-1{fill:#1c1b1a;}</style></defs><path class="cls-1" d="M122.93,159.69c6.9,3,13.75,3.68,21.18,4.38,7.73.74,15.56,1.44,23.31.56,13-1.46,24-7.75,30.75-19.09,3.08-5.18,5.94-10.64,3.84-16.75-2-5.95-7.92-9.08-13.63-10.62A79.58,79.58,0,0,0,142.07,120c-13.2,4.57-22.65,14.66-32.31,24.34a96.8,96.8,0,0,0-23,37c-4.31,12.87-5.4,25.55,5,35.71,9.31,9.08,22.8,13.74,35.09,17.05a129.26,129.26,0,0,0,50,3.61c7.53-1,16.13-2.11,22.44-6.67a29.79,29.79,0,0,0,7.42-8.46c1.89-3,2.89-6.39,4.84-9.26,5.45-8-7.54-15.5-13-7.57-2.52,3.7-3.56,8.1-6.48,11.63-3.1,3.75-9.27,4.25-13.77,5a105.41,105.41,0,0,1-33.91.1,117.85,117.85,0,0,1-31.16-9.07c-6.49-3-15.63-8-15-16.26.83-10.39,6.11-20.76,11.63-29.37,6-9.39,14.23-16.33,22.08-24.11s16.9-11.13,27.62-12.67a62.48,62.48,0,0,1,16.45-.15,46.66,46.66,0,0,1,9.18,1.9c.49.17,1,.3,1.45.48.79.28,1.39,1.24,1.16.51-.35-1.08-1,1.09-1.13,1.4-.59,1.08-1.24,2.14-1.88,3.18a23.71,23.71,0,0,1-4.06,5.14,25,25,0,0,1-12.62,5.88c-6.31,1.15-13,.56-19.4,0-5.93-.49-12.8-.36-18.35-2.78-3.74-1.62-8-1.07-10.26,2.69-1.89,3.16-1,8.65,2.69,10.27Z"/></svg>