<svg id="Layer_1" data-name="Layer 1" xmlns="http://www.w3.org/2000/svg" viewBox="0 0 272.42 291.57"><defs><style>.cls-1{fill:#1c1b1a;}</style></defs><path class="cls-1" d="M81.32,70.68c-7.52,8.41-7,22.57-8.28,33.19-1.91,15.39-2.48,30.94-4.66,46.29-2.17,15.19-5.68,30.14-7.83,45.33a376.07,376.07,0,0,0-3.44,47.42c-.12,9.66,14.88,9.66,15,0A358.33,358.33,0,0,1,75,199.48c2-14.58,5.35-28.93,7.54-43.47S85.63,127,87.09,112.4c.65-6.44,1.68-12.82,2.37-19.24.35-3.32.11-9.24,2.47-11.87,6.42-7.18-4.15-17.82-10.61-10.61Z"/><path class="cls-1" d="M128.65,87c0,11.84.19,23.69.08,35.52-.1,12-1.81,23.84-4.06,35.6-2.19,11.37-5.34,22.48-7.67,33.79-1.12,5.45-1.6,11-.34,16.47.42,1.85,4.39,9.43,3.18,10.9-6.11,7.38,4.45,18,10.61,10.6a17,17,0,0,0,4-14.76c-.85-4.83-3.59-9.09-3.57-14.08,0-6,2.47-11.82,3.85-17.57,1.54-6.45,2.79-13,4.07-19.5,2.43-12.4,4.43-25,4.88-37.62.46-13.08,0-26.26,0-39.35,0-9.65-15-9.67-15,0Z"/><path class="cls-1" d="M73.78,171.53a93,93,0,0,1,42.08,10c8.6,4.32,16.2-8.61,7.57-13a110,110,0,0,0-49.65-12c-9.65,0-9.66,15,0,15Z"/></svg>