<svg id="Layer_1" data-name="Layer 1" xmlns="http://www.w3.org/2000/svg" viewBox="0 0 272.42 291.57"><defs><style>.cls-1{fill:#1c1b1a;}</style></defs><path class="cls-1" d="M93.21,126.87c4.41,4.69,11.14,5.8,17,7.83a230.26,230.26,0,0,0,23.13,6.94c8.09,1.9,16.06,4.23,24.09,6.37a61.76,61.76,0,0,0,8.32,1.51c.83.11,1.65.17,2.48.32,2.5.46,2,1.24.89-.69l1.17-9.09c-10.72,11.3-24.66,18.21-38.29,25.36-7.27,3.82-14.28,8.2-21.8,11.55-6.36,2.83-14.16,4.85-19.44,9.48-4.53,4-1.64,10.81,3.31,12.54,8.62,3,17.84,3.23,26.87,3.14,10.21-.09,20.41,0,30.62,0q31.26-.13,62.52-.14c9.65,0,9.67-15,0-15q-30.29,0-60.58.13c-9.73,0-19.46-.1-29.19,0-8.9.07-17.74.4-26.25-2.58l3.31,12.54c1.91-1.68,5.34-2.25,7.66-3.25,3.75-1.62,7.52-3.25,11.2-5,7.59-3.59,14.79-8.06,22.23-11.95,13.8-7.22,27.6-14.77,38.44-26.19a7.71,7.71,0,0,0,1.17-9.09c-3-5.55-9.58-6.27-15.23-6.94-6.21-.73-13.61-3.41-20.24-5.18-8-2.13-16-3.85-23.93-6.37-4-1.28-7.91-2.75-11.89-4-2.27-.74-5.31-1-7-2.78-6.63-7-17.22,3.58-10.6,10.61Z"/></svg>