<svg id="Layer_1" data-name="Layer 1" xmlns="http://www.w3.org/2000/svg" viewBox="0 0 272.42 291.57"><defs><style>.cls-1{fill:#1c1b1a;}</style></defs><path class="cls-1" d="M115.66,80c-2.36,11.42-5.42,22.69-8,34.05-1.26,5.56-3.09,11-4.11,16.6s-1.07,11.18-1.94,16.75c-1.63,10.4-.23,20.8-2.37,31.15-1,5-2.65,10-3.38,15.06-.9,6.19-.69,12.4-.66,18.63,0,9.65,15,9.67,15,0,0-5.44-.42-11,.38-16.44.75-5,2.51-9.94,3.46-14.94,2-10.41.66-20.81,2.31-31.17.84-5.28.8-10.7,1.83-15.93s2.75-10.45,3.94-15.72c2.58-11.37,5.63-22.63,8-34,1.95-9.42-12.51-13.45-14.46-4Z"/><path class="cls-1" d="M106.38,256.47c9.65,0,9.67-15,0-15s-9.67,15,0,15Z"/></svg>