<svg id="Layer_1" data-name="Layer 1" xmlns="http://www.w3.org/2000/svg" viewBox="0 0 272.42 291.57"><defs><style>.cls-1{fill:#1c1b1a;}</style></defs><path class="cls-1" d="M108.18,100.93c0,25.21-1.09,50.39-2.67,75.55-1.57,24.8-5.11,49.56-5.59,74.41-.19,9.66,14.81,9.66,15,0,.48-24.85,4-49.61,5.59-74.41,1.58-25.16,2.64-50.34,2.67-75.55,0-9.65-15-9.67-15,0Z"/><path class="cls-1" d="M117.05,118.06c8.76,0,20-1.66,28.28,1.79,5.21,2.16,4.77,9.31,4.37,14-.63,7.36-2.93,15.26-7.15,21.39-4.72,6.86-10.84,6.39-17.59,2.55-8.4-4.79-16,8.17-7.57,12.95,10.5,6,23.41,7.46,32.82-1.42C159,161,163,148,164.42,136.36c1.18-9.76.06-20.89-8.24-27.36-10.31-8-26.89-6-39.13-5.94-9.65,0-9.67,15,0,15Z"/></svg>